<svg width="179" height="89" viewBox="0 0 179 89" fill="none" xmlns="http://www.w3.org/2000/svg">
<path d="M178.755 43.7628C178.432 19.9723 159.055 0.623022 135.506 0.545106C121.619 0.493161 109.212 7.06413 101.246 17.2972C101.246 17.2972 72.4221 59.8396 65.5324 66.6183C59.7192 72.3322 51.7261 75.7086 43.5984 75.7086C26.2127 75.7086 12.1372 61.32 12.4064 43.6849C12.6755 27.1406 25.7821 13.4533 42.1182 12.7001C46.3704 12.4923 50.4612 13.1676 54.2021 14.5441C57.1087 15.609 60.3382 14.3104 61.6569 11.4794L61.7377 11.3236C63.2179 8.15496 61.6569 4.38899 58.4005 3.1683C53.7715 1.4801 48.7926 0.545106 43.5715 0.545106C36.5472 0.545106 29.5499 2.28524 23.3061 5.60968C9.25757 13.1156 0.214844 28.2574 0.214844 44.3861C0.214844 68.5922 19.6459 88.2272 43.5984 88.2272C58.9118 88.2272 71.6954 80.0719 80.4152 67.7351C84.2369 62.3329 107.436 29.0366 108.539 27.4783C110.934 24.024 113.814 20.9852 117.259 18.4919C118.981 17.2452 120.811 16.2063 122.722 15.3233C126.705 13.5312 131.038 12.6222 135.371 12.6222C152.757 12.6222 166.832 27.0108 166.563 44.6459C166.294 61.2681 153.08 74.9554 136.636 75.6307C124.66 76.0982 114.11 69.761 108.485 60.0993C107.355 58.1514 105.256 56.9567 103.022 57.0346C98.3661 57.1645 95.5134 62.281 97.8548 66.3586C98.5007 67.4754 99.1735 68.5403 99.9002 69.5792C107.759 80.8511 120.731 88.2012 135.398 88.2012C147.536 88.2012 158.49 83.1626 166.348 75.0593V81.0069C166.348 84.4093 169.093 87.1623 172.457 87.1623C175.821 87.1623 178.566 84.4093 178.566 81.0069C178.566 81.0069 178.809 45.451 178.782 43.7109L178.755 43.7628Z" fill="url(#paint0_linear_2050_1140)"/>
<defs>
<linearGradient id="paint0_linear_2050_1140" x1="0.214844" y1="44.396" x2="178.784" y2="44.396" gradientUnits="userSpaceOnUse">
<stop stop-color="#009FFF"/>
<stop offset="0.14" stop-color="#009DFF"/>
<stop offset="0.15" stop-color="#0096FF"/>
<stop offset="0.45" stop-color="#006AFF"/>
<stop offset="1" stop-color="#8D1EFF"/>
</linearGradient>
</defs>
</svg>
