<svg width="281" height="61" viewBox="0 0 281 61" fill="none" xmlns="http://www.w3.org/2000/svg">
<path d="M126.115 54.8166C126.685 55.4209 126.983 56.2036 126.983 57.1512C126.983 58.0438 126.642 58.7854 125.945 59.4034C125.262 60.0076 124.394 60.3235 123.355 60.3235H121.548C118.502 60.3235 115.77 59.6231 113.365 58.2086C110.96 56.7942 109.068 54.8853 107.716 52.4683C106.364 50.0514 105.695 47.3185 105.695 44.2699V22.0502H100.088C99.1634 22.0502 98.4377 21.7893 97.8969 21.2537C97.3562 20.7319 97.0716 20.0727 97.0716 19.3037C97.0716 18.466 97.342 17.7931 97.8969 17.2712C98.4377 16.7494 99.1777 16.4747 100.088 16.4747H105.695V3.57962C105.695 2.63206 105.994 1.86302 106.606 1.24505C107.203 0.640805 108 0.324951 108.982 0.324951C109.964 0.324951 110.761 0.627072 111.401 1.24505C112.028 1.84929 112.355 2.63206 112.355 3.57962V16.4747H122.088C123.013 16.4747 123.739 16.7356 124.28 17.2712C124.82 17.7931 125.105 18.4797 125.105 19.3037C125.105 20.0864 124.835 20.7319 124.28 21.2537C123.739 21.7756 122.999 22.0502 122.088 22.0502H112.355V44.2561C112.355 47.0851 113.223 49.4059 114.945 51.2049C116.667 53.0039 118.886 53.9103 121.576 53.9103H123.91C124.835 53.9103 125.575 54.2124 126.144 54.8304L126.115 54.8166ZM164.38 16.8455C167.653 18.7543 170.201 21.4048 172.008 24.783C173.815 28.1613 174.726 32.0202 174.726 36.346C174.726 37.2387 174.441 37.939 173.858 38.4609C173.288 38.9827 172.534 39.2574 171.624 39.2574H136.802C137.258 43.8029 139.093 47.4971 142.324 50.326C145.54 53.155 149.567 54.5695 154.391 54.5695C156.454 54.5695 158.546 54.2261 160.638 53.5258C162.73 52.8391 164.409 51.9602 165.675 50.9028C166.415 50.3535 167.198 50.0651 168.009 50.0651C168.635 50.0651 169.276 50.2848 169.902 50.7243C170.642 51.3834 171.026 52.1387 171.026 52.9764C171.026 53.7043 170.713 54.336 170.072 54.8853C168.18 56.4371 165.761 57.728 162.829 58.7579C159.898 59.7879 157.08 60.296 154.377 60.296C149.78 60.296 145.668 59.3073 142.053 57.3435C138.439 55.3797 135.607 52.6331 133.558 49.1038C131.523 45.5882 130.498 41.6057 130.498 37.17C130.498 32.7343 131.466 28.6694 133.387 25.1538C135.308 21.6382 137.983 18.8917 141.399 16.9142C144.814 14.9504 148.713 13.9616 153.082 13.9616C157.45 13.9616 161.093 14.9229 164.38 16.8318V16.8455ZM142.238 23.6295C139.364 26.2387 137.613 29.6719 136.987 33.9428H168.536C168.08 29.6719 166.472 26.2387 163.712 23.6295C160.951 21.0203 157.422 19.7156 153.11 19.7156C148.798 19.7156 145.127 21.0203 142.252 23.6295H142.238ZM214.513 16.8043C217.758 18.466 220.305 20.8967 222.141 24.0827C223.976 27.2687 224.901 31.0864 224.901 35.5221V57.1512C224.901 58.0438 224.588 58.7854 223.948 59.4034C223.322 60.0076 222.539 60.3235 221.614 60.3235C220.632 60.3235 219.835 60.0214 219.195 59.4034C218.569 58.7991 218.242 58.0438 218.242 57.1512V35.5221C218.242 30.592 216.819 26.8292 213.973 24.2475C211.126 21.6657 207.412 20.3748 202.816 20.3748C199.998 20.3748 197.451 20.8967 195.189 21.9541C192.912 23.0115 191.119 24.4672 189.795 26.3211C188.472 28.175 187.817 30.2487 187.817 32.5146V57.1375C187.817 58.085 187.519 58.8403 186.907 59.4309C186.309 60.0076 185.512 60.3097 184.53 60.3097C183.548 60.3097 182.752 60.0214 182.111 59.4309C181.485 58.8541 181.158 58.085 181.158 57.1375V18.054C181.158 17.1064 181.471 16.3374 182.111 15.7194C182.752 15.1014 183.548 14.7993 184.53 14.7993C185.512 14.7993 186.295 15.1014 186.907 15.7194C187.504 16.3236 187.817 17.1064 187.817 18.054V20.8829C189.71 18.8367 192.015 17.2163 194.719 16.0627C197.423 14.8954 200.354 14.3187 203.513 14.3187C207.597 14.3187 211.255 15.1564 214.499 16.818L214.513 16.8043ZM268.46 17.0103C272.103 19.029 274.977 21.8168 277.083 25.3736C279.175 28.9166 280.228 32.8579 280.228 37.1837V56.7255C280.228 57.6181 279.915 58.3597 279.275 58.9777C278.634 59.5956 277.838 59.8978 276.856 59.8978C275.874 59.8978 275.077 59.6094 274.437 59.0189C273.81 58.4421 273.483 57.6731 273.483 56.7255V51.7405C271.477 54.4047 268.915 56.492 265.813 58.0164C262.711 59.5407 259.296 60.3097 255.553 60.3097C251.184 60.3097 247.228 59.2935 243.699 57.2748C240.17 55.2561 237.381 52.4821 235.332 48.9527C233.297 45.4371 232.273 41.5096 232.273 37.1837C232.273 32.8579 233.326 28.9166 235.417 25.3736C237.509 21.8305 240.384 19.0427 244.041 17.0103C247.684 14.9916 251.754 13.9753 256.236 13.9753C260.719 13.9753 264.789 14.9916 268.431 17.0103H268.46ZM265.144 52.2486C267.791 50.7517 269.869 48.6918 271.391 46.0551C272.914 43.4184 273.682 40.4659 273.682 37.1975C273.682 33.9291 272.914 30.9765 271.391 28.3398C269.869 25.7031 267.791 23.6295 265.144 22.1051C262.497 20.5808 259.538 19.8118 256.265 19.8118C252.992 19.8118 250.018 20.5808 247.342 22.1051C244.667 23.6295 242.575 25.7169 241.053 28.3398C239.53 30.9765 238.762 33.9291 238.762 37.1975C238.762 40.4659 239.516 43.4184 241.053 46.0551C242.575 48.6918 244.667 50.7517 247.342 52.2486C250.018 53.7455 252.992 54.5008 256.265 54.5008C259.538 54.5008 262.497 53.7592 265.144 52.2486ZM94.7663 36.7992C94.5955 24.22 84.3498 13.9891 71.8984 13.9479C64.5556 13.9204 57.9955 17.3948 53.7834 22.8055C53.7834 22.8055 38.5429 45.2998 34.8999 48.8841C31.8262 51.9053 27.5998 53.6905 23.3023 53.6905C14.1096 53.6905 6.66725 46.0826 6.80955 36.758C6.95186 28.0102 13.882 20.7731 22.5197 20.3748C24.768 20.265 26.931 20.622 28.909 21.3498C30.4459 21.9129 32.1535 21.2262 32.8508 19.7294L32.8935 19.647C33.6761 17.9716 32.8508 15.9803 31.1289 15.3349C28.6813 14.4423 26.0488 13.9479 23.2881 13.9479C19.574 13.9479 15.8742 14.868 12.5728 16.6258C5.14462 20.5945 0.363281 28.6008 0.363281 37.1288C0.363281 49.9278 10.6375 60.3097 23.3023 60.3097C31.3993 60.3097 38.1586 55.9977 42.7692 49.4746C44.7899 46.6182 57.0563 29.0127 57.6398 28.1888C58.9062 26.3623 60.4289 24.7556 62.2503 23.4372C63.1611 22.7781 64.1287 22.2287 65.1391 21.7618C67.2451 20.8143 69.5362 20.3336 71.8273 20.3336C81.02 20.3336 88.4623 27.9416 88.32 37.2661C88.1777 46.0551 81.1907 53.2923 72.4961 53.6494C66.1636 53.8965 60.5854 50.5457 57.6113 45.4371C57.0136 44.4072 55.9037 43.7755 54.7226 43.8167C52.2608 43.8853 50.7523 46.5907 51.9904 48.7467C52.3319 49.3373 52.6877 49.9003 53.0719 50.4496C57.2271 56.4096 64.086 60.296 71.8415 60.296C78.2593 60.296 84.051 57.6319 88.2062 53.3472V56.492C88.2062 58.291 89.6577 59.7467 91.4364 59.7467C93.2152 59.7467 94.6667 58.291 94.6667 56.492C94.6667 56.492 94.7948 37.6919 94.7805 36.7718L94.7663 36.7992Z" fill="url(#paint0_linear_2050_460)"/>
<defs>
<linearGradient id="paint0_linear_2050_460" x1="0.363281" y1="30.3311" x2="280.228" y2="30.3311" gradientUnits="userSpaceOnUse">
<stop stop-color="#009FFF"/>
<stop offset="0.14" stop-color="#009DFF"/>
<stop offset="0.15" stop-color="#0096FF"/>
<stop offset="0.45" stop-color="#006AFF"/>
<stop offset="1" stop-color="#8D1EFF"/>
</linearGradient>
</defs>
</svg>
