<svg width="210" height="45" viewBox="0 0 210 45" fill="none" xmlns="http://www.w3.org/2000/svg">
<path d="M94.3164 40.8698C94.7433 41.323 94.9675 41.9101 94.9675 42.6207C94.9675 43.2902 94.7113 43.8464 94.1883 44.3099C93.676 44.7631 93.025 45 92.2459 45H90.8904C88.6064 45 86.5572 44.4747 84.7535 43.4138C82.9498 42.353 81.5303 40.9213 80.5163 39.1085C79.5024 37.2957 79.0008 35.2461 79.0008 32.9595V16.2944H74.7957C74.1019 16.2944 73.5576 16.0987 73.152 15.697C72.7465 15.3056 72.533 14.8112 72.533 14.2344C72.533 13.6061 72.7358 13.1014 73.152 12.71C73.5576 12.3186 74.1126 12.1126 74.7957 12.1126H79.0008V2.44106C79.0008 1.73037 79.2249 1.15358 79.6839 0.690089C80.1321 0.236896 80.7298 0 81.4662 0C82.2027 0 82.8003 0.226597 83.2806 0.690089C83.7502 1.14328 83.9957 1.73037 83.9957 2.44106V12.1126H91.296C91.9897 12.1126 92.534 12.3083 92.9396 12.71C93.3452 13.1014 93.5586 13.6164 93.5586 14.2344C93.5586 14.8215 93.3558 15.3056 92.9396 15.697C92.534 16.0884 91.979 16.2944 91.296 16.2944H83.9957V32.9492C83.9957 35.071 84.6468 36.8116 85.9382 38.1609C87.2296 39.5102 88.8946 40.19 90.9118 40.19H92.6621C93.3558 40.19 93.9108 40.4166 94.3377 40.8801L94.3164 40.8698ZM123.016 12.3907C125.471 13.8224 127.381 15.8103 128.736 18.344C130.092 20.8778 130.775 23.772 130.775 27.0165C130.775 27.686 130.562 28.2113 130.124 28.6027C129.697 28.9941 129.131 29.2001 128.448 29.2001H102.332C102.673 32.6093 104.05 35.38 106.473 37.5017C108.885 39.6235 111.905 40.6844 115.523 40.6844C117.071 40.6844 118.64 40.4269 120.209 39.9016C121.778 39.3866 123.037 38.7274 123.987 37.9343C124.542 37.5223 125.129 37.306 125.737 37.306C126.207 37.306 126.687 37.4708 127.157 37.8004C127.712 38.2948 128 38.8613 128 39.4896C128 40.0355 127.765 40.5093 127.285 40.9213C125.865 42.0852 124.051 43.0533 121.852 43.8258C119.654 44.5983 117.541 44.9794 115.513 44.9794C112.065 44.9794 108.981 44.2378 106.27 42.7649C103.559 41.2921 101.435 39.2321 99.8983 36.585C98.3721 33.9483 97.6037 30.9613 97.6037 27.6345C97.6037 24.3076 98.3294 21.2589 99.7703 18.6221C101.211 15.9854 103.218 13.9254 105.779 12.4422C108.341 10.9693 111.265 10.2277 114.542 10.2277C117.818 10.2277 120.55 10.9487 123.016 12.3804V12.3907ZM106.409 17.4788C104.253 19.4358 102.94 22.0108 102.47 25.214H126.132C125.791 22.0108 124.585 19.4358 122.514 17.4788C120.444 15.5219 117.797 14.5434 114.563 14.5434C111.329 14.5434 108.575 15.5219 106.419 17.4788H106.409ZM160.616 12.3598C163.05 13.6061 164.96 15.4292 166.337 17.8187C167.714 20.2083 168.408 23.0716 168.408 26.3985V42.6207C168.408 43.2902 168.173 43.8464 167.693 44.3099C167.223 44.7631 166.636 45 165.942 45C165.206 45 164.608 44.7734 164.128 44.3099C163.658 43.8567 163.413 43.2902 163.413 42.6207V26.3985C163.413 22.7009 162.345 19.8787 160.211 17.9423C158.076 16.006 155.291 15.0378 151.843 15.0378C149.73 15.0378 147.82 15.4292 146.123 16.2223C144.415 17.0153 143.07 18.1071 142.078 19.4976C141.085 20.8881 140.594 22.4434 140.594 24.1428V42.6104C140.594 43.3211 140.37 43.8876 139.911 44.3305C139.463 44.7631 138.865 44.9897 138.129 44.9897C137.392 44.9897 136.795 44.7734 136.314 44.3305C135.845 43.8979 135.599 43.3211 135.599 42.6104V13.2971C135.599 12.5864 135.834 12.0096 136.314 11.5461C136.795 11.0826 137.392 10.856 138.129 10.856C138.865 10.856 139.452 11.0826 139.911 11.5461C140.359 11.9993 140.594 12.5864 140.594 13.2971V15.4189C142.014 13.8842 143.743 12.6688 145.77 11.8036C147.798 10.9281 149.997 10.4955 152.366 10.4955C155.429 10.4955 158.172 11.1238 160.606 12.3701L160.616 12.3598ZM201.077 12.5143C203.81 14.0284 205.966 16.1193 207.545 18.7869C209.114 21.4443 209.904 24.4003 209.904 27.6448V42.3015C209.904 42.9709 209.669 43.5271 209.189 43.9906C208.709 44.4541 208.111 44.6807 207.374 44.6807C206.638 44.6807 206.04 44.4644 205.56 44.0215C205.09 43.5889 204.845 43.0121 204.845 42.3015V38.5626C203.34 40.5608 201.419 42.1264 199.092 43.2696C196.766 44.4129 194.204 44.9897 191.397 44.9897C188.121 44.9897 185.153 44.2275 182.507 42.7134C179.86 41.1994 177.768 39.1188 176.231 36.4717C174.705 33.835 173.936 30.8892 173.936 27.6448C173.936 24.4003 174.726 21.4443 176.295 18.7869C177.864 16.1296 180.02 14.0387 182.763 12.5143C185.495 11.0002 188.547 10.238 191.909 10.238C195.271 10.238 198.324 11.0002 201.056 12.5143H201.077ZM198.591 38.9437C200.576 37.821 202.134 36.276 203.276 34.2985C204.418 32.3209 204.994 30.1064 204.994 27.6551C204.994 25.2037 204.418 22.9892 203.276 21.0117C202.134 19.0341 200.576 17.4788 198.591 16.3356C196.605 15.1923 194.385 14.6155 191.931 14.6155C189.476 14.6155 187.245 15.1923 185.239 16.3356C183.232 17.4788 181.663 19.0444 180.521 21.0117C179.379 22.9892 178.803 25.2037 178.803 27.6551C178.803 30.1064 179.369 32.3209 180.521 34.2985C181.663 36.276 183.232 37.821 185.239 38.9437C187.245 40.0664 189.476 40.6329 191.931 40.6329C194.385 40.6329 196.605 40.0767 198.591 38.9437ZM70.804 27.3564C70.6759 17.9217 62.9914 10.2483 53.6527 10.2174C48.1454 10.1968 43.2252 12.8027 40.0661 16.8608C40.0661 16.8608 28.6354 33.732 25.9031 36.4202C23.5978 38.6862 20.4279 40.0252 17.2047 40.0252C10.31 40.0252 4.72809 34.3191 4.83482 27.3255C4.94155 20.7645 10.1393 15.3365 16.6177 15.0378C18.304 14.9554 19.9263 15.2232 21.4098 15.7691C22.5625 16.1914 23.8433 15.6764 24.3662 14.5537L24.3982 14.4919C24.9853 13.2353 24.3662 11.7418 23.0748 11.2577C21.2391 10.5882 19.2646 10.2174 17.194 10.2174C14.4084 10.2174 11.6335 10.9075 9.15735 12.2259C3.58609 15.2026 0 21.2074 0 27.6036C0 37.203 7.70583 44.9897 17.2047 44.9897C23.2776 44.9897 28.3472 41.7556 31.8052 36.8631C33.3208 34.7208 42.5208 21.5164 42.9584 20.8984C43.9083 19.5285 45.0503 18.3234 46.4164 17.3346C47.0995 16.8402 47.8253 16.4282 48.583 16.0781C50.1626 15.3674 51.881 15.0069 53.5993 15.0069C60.494 15.0069 66.0759 20.713 65.9692 27.7066C65.8625 34.2985 60.6221 39.7265 54.1009 39.9943C49.3515 40.1797 45.1677 37.6665 42.9371 33.835C42.4888 33.0625 41.6563 32.5887 40.7705 32.6196C38.9241 32.6711 37.7927 34.7002 38.7213 36.3172C38.9774 36.7601 39.2442 37.1824 39.5324 37.5944C42.6489 42.0646 47.7932 44.9794 53.61 44.9794C58.4234 44.9794 62.7673 42.9812 65.8838 39.7677V42.1264C65.8838 43.4756 66.9724 44.5674 68.3065 44.5674C69.6407 44.5674 70.7293 43.4756 70.7293 42.1264C70.7293 42.1264 70.8253 28.0259 70.8147 27.3358L70.804 27.3564Z" fill="url(#paint0_linear_459_221)"/>
<defs>
<linearGradient id="paint0_linear_459_221" x1="0" y1="22.5052" x2="209.904" y2="22.5052" gradientUnits="userSpaceOnUse">
<stop stop-color="#009FFF"/>
<stop offset="0.14" stop-color="#009DFF"/>
<stop offset="0.15" stop-color="#0096FF"/>
<stop offset="0.45" stop-color="#006AFF"/>
<stop offset="1" stop-color="#8D1EFF"/>
</linearGradient>
</defs>
</svg>
