<svg width="290" height="287" viewBox="0 0 290 287" fill="none" xmlns="http://www.w3.org/2000/svg">
<path d="M10.5957 93.1847L13.928 85.568C15.8321 81.2837 18.6884 78.3084 23.5678 80.4506C28.4472 82.5928 28.4472 86.5201 26.543 90.8045L25.1149 94.0177L33.0886 97.469L31.0654 101.991L10.5957 93.1847ZM21.3066 92.3516L22.6157 89.3763C23.3298 87.8292 23.4488 85.9251 21.5446 85.092C19.4024 84.1399 18.2123 86.1631 17.4983 87.9482L16.5462 90.3284L21.3066 92.3516Z" fill="white"/>
<path d="M29.9953 56.8867C34.1607 51.2932 40.9442 49.9841 46.6567 54.2685C52.3692 58.5528 53.0832 65.4554 48.7989 71.0489C44.6335 76.6423 37.85 77.9514 32.1375 73.6671C26.425 69.3827 25.83 62.4801 29.9953 56.8867ZM45.2286 68.3116C47.7278 64.9794 47.0137 60.933 43.6815 58.4338C40.3492 55.9346 36.3029 56.2916 33.6846 59.6239C31.1854 62.9562 31.8995 67.0025 35.2318 69.5017C38.6831 72.0009 42.7294 71.6439 45.2286 68.3116Z" fill="white"/>
<path d="M46.0605 38.4401L50.3449 35.2269L61.8889 44.5096L56.8904 30.2285L60.5797 27.4912L73.1948 36.417L67.2443 22.3738L71.2906 19.3986L79.6213 41.1774L76.17 43.7956L62.8409 34.3938L68.3154 49.7461L64.9831 52.3643L46.0605 38.4401Z" fill="white"/>
<path d="M83.4297 13.5671L97.4728 7.7356L99.258 11.9009L89.7372 15.8283L91.2843 19.6366L100.21 15.9473L101.995 20.1126L93.0695 23.8019L94.8546 27.9673L104.851 23.8019L106.637 27.9673L91.9984 34.0368L83.4297 13.5671Z" fill="white"/>
<path d="M111.396 3.57031L119.965 2.02318C124.488 1.19011 128.534 2.02318 129.486 7.1406C130.081 10.2349 128.891 12.9721 125.797 14.0432L133.175 22.3739L127.344 23.4449L121.155 15.4713L118.775 15.9473L120.441 24.7541L115.562 25.5871L111.396 3.57031ZM117.942 11.782L120.798 11.3059C122.583 10.9489 124.845 10.4729 124.488 8.09268C124.131 5.8315 121.988 5.95051 120.203 6.18853L116.99 6.78358L117.942 11.782Z" fill="white"/>
<path d="M162.929 5.23643L156.621 4.28435L157.216 0L174.83 2.49921L174.235 6.78356L167.808 5.95049L165.19 23.802L160.31 23.0879L162.929 5.23643Z" fill="white"/>
<path d="M197.68 9.04476C204.225 11.544 207.319 17.7325 204.701 24.397C202.083 31.0616 195.657 33.5608 189.111 30.9426C182.565 28.4434 179.471 22.2548 182.089 15.5903C184.708 8.92575 191.134 6.54555 197.68 9.04476ZM190.658 26.7772C194.585 28.3243 198.275 26.5392 199.822 22.6119C201.369 18.6846 199.941 14.8762 196.014 13.3291C192.086 11.782 188.397 13.5671 186.85 17.4945C185.303 21.4218 186.731 25.2301 190.658 26.7772Z" fill="white"/>
<path d="M240.046 54.2684C236.476 58.1958 231.478 58.9098 226.836 54.6255C222.195 50.3411 222.552 45.3427 226.122 41.4154L235.405 31.2996L239.094 34.6318L229.931 44.6287C228.026 46.6518 228.026 49.5081 229.931 51.2932C231.835 53.0784 234.691 52.8403 236.476 50.8172L245.64 40.8203L249.329 44.1526L240.046 54.2684Z" fill="white"/>
<path d="M260.635 67.4785C260.992 66.2884 260.516 64.6223 259.802 63.6702C258.969 62.4801 257.422 61.29 255.994 62.2421C252.661 64.6223 260.754 71.5248 254.327 76.0472C250.281 78.9035 245.997 76.9993 243.259 73.191C241.593 70.8108 240.879 68.3116 241.236 65.4553L246.473 66.1694C245.997 67.7165 246.235 69.6207 247.187 70.9298C248.139 72.2389 249.805 73.31 251.114 72.3579C254.446 69.9777 246.592 62.5991 252.78 58.3148C256.708 55.5775 261.111 57.4817 263.61 61.171C265.038 63.1942 265.871 65.5744 265.633 68.1926L260.635 67.4785Z" fill="white"/>
<path d="M273.726 79.1415L279.795 93.0656L275.63 94.8508L271.464 85.449L267.656 87.1151L271.583 96.0409L267.418 97.826L263.491 88.9003L259.325 90.6854L263.61 100.682L259.444 102.467L253.256 88.0672L273.726 79.1415Z" fill="white"/>
<path d="M279.796 193.153L276.463 200.77C274.559 205.054 271.703 208.029 266.824 205.887C261.944 203.745 261.944 199.817 263.848 195.533L265.276 192.201L257.303 188.75L259.326 184.227L279.796 193.153ZM269.204 193.986L267.895 196.961C267.181 198.508 267.062 200.413 268.966 201.246C271.108 202.198 272.298 200.174 273.012 198.389L273.964 196.009L269.204 193.986Z" fill="white"/>
<path d="M260.397 229.451C256.231 235.044 249.448 236.353 243.735 232.069C238.023 227.785 237.428 220.882 241.593 215.289C245.758 209.695 252.542 208.386 258.254 212.67C263.967 217.074 264.681 223.857 260.397 229.451ZM245.163 218.026C242.664 221.358 243.378 225.405 246.71 227.904C250.043 230.403 254.089 230.046 256.707 226.714C259.206 223.381 258.492 219.335 255.16 216.836C251.828 214.337 247.782 214.694 245.163 218.026Z" fill="white"/>
<path d="M244.449 247.897L240.165 251.111L228.621 241.828L233.62 256.109L229.93 258.846L217.315 249.921L223.266 263.964L219.219 266.939L210.889 245.041L214.34 242.423L227.669 251.825L222.195 236.472L225.527 233.854L244.449 247.897Z" fill="white"/>
<path d="M207.082 272.77L193.039 278.602L191.254 274.437L200.774 270.509L199.227 266.701L190.302 270.39L188.516 266.225L197.442 262.536L195.657 258.37L185.66 262.536L183.875 258.37L198.513 252.301L207.082 272.77Z" fill="white"/>
<path d="M178.994 282.767L170.425 284.314C165.903 285.147 161.856 284.314 160.904 279.078C160.309 275.984 161.499 273.247 164.594 272.175L157.334 263.845L163.165 262.774L169.354 270.747L171.734 270.271L170.068 261.465L174.947 260.631L178.994 282.767ZM172.448 274.437L169.592 274.913C167.807 275.27 165.546 275.746 165.903 278.126C166.26 280.387 168.402 280.268 170.187 280.03L173.4 279.435L172.448 274.437Z" fill="white"/>
<path d="M127.463 280.982L133.771 281.934L133.176 286.218L115.562 283.719L116.158 279.435L122.465 280.387L125.083 262.536L129.963 263.25L127.463 280.982Z" fill="white"/>
<path d="M92.8317 277.174C86.2862 274.675 83.1919 268.486 85.8101 261.822C88.4283 255.157 94.8549 252.658 101.4 255.276C107.946 257.775 111.04 263.964 108.422 270.628C105.804 277.293 99.3772 279.792 92.8317 277.174ZM99.7343 259.56C95.8069 258.013 92.1176 259.798 90.5705 263.726C89.0234 267.653 90.4515 271.461 94.3788 273.008C98.3061 274.556 101.995 272.77 103.543 268.843C105.09 264.916 103.662 260.988 99.7343 259.56Z" fill="white"/>
<path d="M50.4643 231.95C54.0346 228.023 59.033 227.309 63.6744 231.593C68.3157 235.877 67.9587 240.876 64.3884 244.803L54.9866 254.919L51.2973 251.587L60.4611 241.59C62.3653 239.567 62.3653 236.711 60.4611 234.925C58.5569 233.14 55.7007 233.378 53.9156 235.401L44.7518 245.398L41.0625 242.066L50.4643 231.95Z" fill="white"/>
<path d="M29.8746 218.74C29.5175 219.93 29.9936 221.596 30.7076 222.548C31.5407 223.738 33.0878 224.928 34.5159 223.976C37.8482 221.596 29.7556 214.694 36.1821 210.171C40.2284 207.315 44.5128 209.219 47.131 213.027C48.7971 215.408 49.5112 217.907 49.1542 220.763L43.9177 220.049C44.3938 218.502 44.1557 216.598 43.2037 215.289C42.2516 213.98 40.5855 212.908 39.2763 213.861C35.9441 216.241 43.7987 223.619 37.6102 227.904C33.6829 230.641 29.2795 228.737 26.7803 225.047C25.3522 223.024 24.5191 220.644 24.7571 218.026L29.8746 218.74Z" fill="white"/>
<path d="M16.6652 207.077L10.5957 193.153L14.761 191.368L18.8074 200.77L22.6157 199.103L18.6884 190.178L22.8537 188.392L26.781 197.318L30.9464 195.533L26.662 185.536L30.8274 183.751L37.1349 198.27L16.6652 207.077Z" fill="white"/>
<path d="M12.1438 146.501C11.9058 146.501 11.6678 146.501 11.4298 146.501C8.2165 146.501 5.12224 146.501 1.90898 146.501C1.78997 146.501 1.67096 146.501 1.43294 146.501C0.837891 146.501 0.361851 146.263 0.123832 145.787C-0.114188 145.311 0.00482208 144.716 0.361851 144.359C1.07591 143.526 1.78997 142.574 2.50403 141.741C6.78838 136.504 10.9537 131.149 15.2381 125.912C15.3571 125.793 15.3571 125.674 15.4761 125.555C15.8331 125.198 16.4282 125.079 16.9042 125.198C17.3803 125.436 17.7373 125.912 17.7373 126.388C17.7373 127.102 17.6183 127.817 17.4993 128.531C17.2612 130.316 17.0232 132.22 16.6662 134.005C16.5472 135.195 16.3092 136.385 16.1902 137.575C16.0711 138.051 16.1902 138.051 16.5472 138.051C20.2365 138.051 23.8068 138.051 27.4961 138.051C27.7341 138.051 27.8531 138.051 28.0911 138.051C28.6862 138.051 29.0432 138.289 29.2812 138.765C29.5193 139.241 29.4002 139.718 29.0432 140.194C28.6862 140.67 28.2101 141.146 27.8531 141.622C22.6167 147.929 17.2612 154.237 12.0248 160.544C11.7868 160.901 11.5488 161.258 11.0727 161.377C10.2397 161.615 9.4066 161.02 9.4066 160.187C9.4066 159.83 9.52561 159.354 9.64462 158.997C10.4777 155.07 11.3108 151.142 12.1438 147.215C12.1438 146.858 12.1438 146.739 12.1438 146.501Z" fill="white"/>
<path d="M277.654 146.501C277.892 146.501 278.13 146.501 278.368 146.501C281.581 146.501 284.675 146.501 287.889 146.501C288.008 146.501 288.127 146.501 288.365 146.501C288.96 146.501 289.436 146.263 289.674 145.787C289.912 145.311 289.793 144.716 289.436 144.359C288.722 143.526 288.008 142.574 287.294 141.741C283.009 136.504 278.844 131.149 274.56 125.912C274.441 125.793 274.441 125.674 274.322 125.555C273.965 125.198 273.369 125.079 272.893 125.198C272.417 125.436 272.06 125.912 272.06 126.388C272.06 127.102 272.179 127.817 272.298 128.531C272.536 130.316 272.774 132.22 273.131 134.005C273.25 135.195 273.488 136.385 273.607 137.575C273.726 138.051 273.607 138.051 273.25 138.051C269.561 138.051 265.991 138.051 262.302 138.051C262.064 138.051 261.945 138.051 261.707 138.051C261.111 138.051 260.754 138.289 260.516 138.765C260.278 139.241 260.397 139.718 260.754 140.194C261.111 140.67 261.587 141.146 261.945 141.622C267.181 147.929 272.536 154.237 277.773 160.544C278.011 160.901 278.249 161.258 278.725 161.377C279.558 161.615 280.391 161.02 280.391 160.187C280.391 159.83 280.272 159.354 280.153 158.997C279.32 155.07 278.487 151.142 277.654 147.215C277.773 146.858 277.773 146.739 277.654 146.501Z" fill="white"/>
</svg>
