<svg width="279" height="172" viewBox="0 0 279 172" fill="none" xmlns="http://www.w3.org/2000/svg">
<path d="M0 39.8943C0 26.0939 0 19.1937 2.68574 13.9226C5.04818 9.28608 8.81782 5.51645 13.4544 3.154C18.7254 0.468262 25.6256 0.468262 39.4261 0.468262H238.786C252.586 0.468262 259.486 0.468262 264.757 3.154C269.394 5.51645 273.164 9.28608 275.526 13.9226C278.212 19.1937 278.212 26.0939 278.212 39.8943V132.35C278.212 146.15 278.212 153.05 275.526 158.321C273.164 162.958 269.394 166.727 264.757 169.09C259.486 171.776 252.586 171.776 238.786 171.776H39.426C25.6256 171.776 18.7254 171.776 13.4544 169.09C8.81782 166.727 5.04818 162.958 2.68574 158.321C0 153.05 0 146.15 0 132.35V39.8943Z" fill="#060B26"/>
<path d="M25.1452 30.1359C26.8758 30.1359 28.1361 30.5121 28.9262 31.2646C29.7288 32.0044 30.1301 33.0265 30.1301 34.3307C30.1301 34.9201 30.0423 35.4845 29.8667 36.0237C29.6912 36.5504 29.3965 37.027 28.9826 37.4533C28.5813 37.8672 28.0484 38.1932 27.3837 38.4315C26.7191 38.6698 25.8976 38.7889 24.9195 38.7889H23.6968V43.5669H20.8563V30.1359H25.1452ZM24.9947 32.4684H23.6968V36.4564H24.6373C25.1766 36.4564 25.6406 36.3874 26.0293 36.2494C26.4181 36.1115 26.7191 35.892 26.9322 35.5911C27.1454 35.2901 27.252 34.9013 27.252 34.4248C27.252 33.7601 27.0702 33.271 26.7065 32.9575C26.3428 32.6315 25.7722 32.4684 24.9947 32.4684ZM38.1799 33.108C38.3178 33.108 38.4808 33.1143 38.6689 33.1268C38.857 33.1394 39.0075 33.1582 39.1204 33.1833L38.9135 35.8168C38.8257 35.7917 38.694 35.7729 38.5184 35.7604C38.3554 35.7353 38.2112 35.7227 38.0858 35.7227C37.7221 35.7227 37.371 35.7729 37.0324 35.8732C36.6938 35.961 36.3865 36.1052 36.1106 36.3059C35.8473 36.5065 35.6341 36.7762 35.4711 37.1147C35.3206 37.4408 35.2453 37.8484 35.2453 38.3375V43.5669H32.4425V33.2961H34.5682L34.982 35.0267H35.1137C35.3143 34.6756 35.5651 34.3558 35.8661 34.0674C36.1671 33.7789 36.5119 33.5469 36.9007 33.3714C37.302 33.1958 37.7284 33.108 38.1799 33.108ZM49.9474 38.4127C49.9474 39.2655 49.8283 40.0242 49.59 40.6888C49.3643 41.3535 49.0319 41.9178 48.593 42.3818C48.1666 42.8333 47.6462 43.1781 47.0317 43.4164C46.4172 43.6421 45.7212 43.755 44.9437 43.755C44.2289 43.755 43.5642 43.6421 42.9497 43.4164C42.3478 43.1781 41.8274 42.8333 41.3884 42.3818C40.9495 41.9178 40.6046 41.3535 40.3538 40.6888C40.1156 40.0242 39.9964 39.2655 39.9964 38.4127C39.9964 37.2715 40.1971 36.3121 40.5984 35.5346C40.9997 34.7446 41.5765 34.1426 42.329 33.7288C43.0814 33.3149 43.9718 33.108 45.0001 33.108C45.9658 33.108 46.8185 33.3149 47.5584 33.7288C48.2983 34.1426 48.8815 34.7446 49.3078 35.5346C49.7342 36.3121 49.9474 37.2715 49.9474 38.4127ZM42.8557 38.4127C42.8557 39.0899 42.9247 39.6605 43.0626 40.1245C43.2131 40.576 43.4451 40.9208 43.7586 41.1591C44.0721 41.3848 44.4797 41.4977 44.9813 41.4977C45.4829 41.4977 45.8842 41.3848 46.1852 41.1591C46.4987 40.9208 46.7245 40.576 46.8624 40.1245C47.0129 39.6605 47.0881 39.0899 47.0881 38.4127C47.0881 37.7355 47.0129 37.1712 46.8624 36.7197C46.7245 36.2683 46.4987 35.9297 46.1852 35.7039C45.8717 35.4782 45.4641 35.3653 44.9625 35.3653C44.2226 35.3653 43.6834 35.6224 43.3448 36.1366C43.0187 36.6382 42.8557 37.3969 42.8557 38.4127ZM55.5933 33.108C56.2204 33.108 56.7847 33.2334 57.2863 33.4842C57.7879 33.7351 58.2143 34.1113 58.5655 34.6129H58.6407L58.8664 33.2961H61.2366V43.5857C61.2366 44.5639 61.0422 45.3853 60.6535 46.0499C60.2772 46.7146 59.7066 47.2162 58.9417 47.5548C58.1767 47.9059 57.2299 48.0815 56.1012 48.0815C55.3739 48.0815 54.6967 48.0376 54.0696 47.9498C53.4552 47.8621 52.8532 47.7053 52.2638 47.4796V45.2411C52.6902 45.4166 53.1166 45.5609 53.5429 45.6737C53.9819 45.7991 54.427 45.8869 54.8785 45.9371C55.3425 45.9998 55.8065 46.0311 56.2705 46.0311C56.9979 46.0311 57.5371 45.8367 57.8883 45.448C58.2519 45.0592 58.4338 44.4761 58.4338 43.6986V43.4917C58.4338 43.2785 58.44 43.059 58.4526 42.8333C58.4777 42.6075 58.4965 42.4069 58.509 42.2313H58.4338C58.0826 42.7706 57.6625 43.1593 57.1734 43.3976C56.6844 43.6359 56.1326 43.755 55.5181 43.755C54.3016 43.755 53.3486 43.291 52.6588 42.363C51.9816 41.4224 51.643 40.1182 51.643 38.4503C51.643 37.3217 51.7998 36.3623 52.1133 35.5723C52.4268 34.7697 52.8783 34.1614 53.4677 33.7476C54.0696 33.3212 54.7782 33.108 55.5933 33.108ZM56.4774 35.3841C56.0385 35.3841 55.6686 35.5033 55.3676 35.7416C55.0792 35.9673 54.8597 36.3121 54.7092 36.7762C54.5713 37.2276 54.5023 37.7982 54.5023 38.4879C54.5023 39.5163 54.6653 40.2875 54.9914 40.8017C55.3174 41.3033 55.8253 41.5541 56.5151 41.5541C56.8787 41.5541 57.1923 41.5102 57.4556 41.4224C57.719 41.3221 57.9322 41.1654 58.0952 40.9522C58.2707 40.7264 58.4024 40.438 58.4902 40.0869C58.578 39.7357 58.6219 39.3094 58.6219 38.8077V38.4691C58.6219 37.7292 58.5466 37.1336 58.3962 36.6821C58.2457 36.2306 58.0137 35.9046 57.7002 35.7039C57.3866 35.4907 56.9791 35.3841 56.4774 35.3841ZM69.9049 33.108C70.0429 33.108 70.2059 33.1143 70.394 33.1268C70.5821 33.1394 70.7326 33.1582 70.8455 33.1833L70.6385 35.8168C70.5508 35.7917 70.4191 35.7729 70.2435 35.7604C70.0805 35.7353 69.9363 35.7227 69.8109 35.7227C69.4472 35.7227 69.096 35.7729 68.7574 35.8732C68.4188 35.961 68.1116 36.1052 67.8357 36.3059C67.5724 36.5065 67.3592 36.7762 67.1961 37.1147C67.0457 37.4408 66.9704 37.8484 66.9704 38.3375V43.5669H64.1676V33.2961H66.2932L66.7071 35.0267H66.8387C67.0394 34.6756 67.2902 34.3558 67.5912 34.0674C67.8921 33.7789 68.237 33.5469 68.6258 33.3714C69.0271 33.1958 69.4535 33.108 69.9049 33.108ZM76.5747 33.108C77.5278 33.108 78.3429 33.2899 79.0201 33.6535C79.7099 34.0172 80.2428 34.5439 80.6191 35.2337C80.9953 35.9234 81.1834 36.7699 81.1834 37.7731V39.1275H74.5619C74.587 39.9176 74.819 40.5383 75.2579 40.9898C75.7094 41.4413 76.3302 41.667 77.1202 41.667C77.7849 41.667 78.3868 41.6043 78.9261 41.4789C79.4653 41.3409 80.0234 41.134 80.6002 40.8581V43.0214C80.0986 43.2722 79.5656 43.454 79.0013 43.5669C78.4495 43.6923 77.7786 43.755 76.9885 43.755C75.9602 43.755 75.051 43.5669 74.261 43.1907C73.4709 42.8019 72.8501 42.2188 72.3987 41.4413C71.9472 40.6637 71.7215 39.6856 71.7215 38.5068C71.7215 37.3029 71.9221 36.3059 72.3234 35.5158C72.7373 34.7132 73.3079 34.1113 74.0352 33.71C74.7626 33.3087 75.6091 33.108 76.5747 33.108ZM76.5935 35.102C76.0543 35.102 75.6028 35.2775 75.2391 35.6287C74.888 35.9798 74.6811 36.5253 74.6184 37.2652H78.5499C78.5499 36.8514 78.4746 36.4814 78.3241 36.1554C78.1862 35.8293 77.973 35.5723 77.6846 35.3841C77.3961 35.196 77.0324 35.102 76.5935 35.102ZM90.6231 40.5195C90.6231 41.2093 90.4601 41.7987 90.134 42.2878C89.8079 42.7643 89.3189 43.128 88.6668 43.3788C88.0146 43.6296 87.2058 43.755 86.2401 43.755C85.5253 43.755 84.9108 43.7048 84.3967 43.6045C83.8825 43.5167 83.3683 43.3662 82.8542 43.1531V40.8393C83.406 41.0901 84.0016 41.297 84.6412 41.4601C85.2808 41.6231 85.8451 41.7046 86.3342 41.7046C86.886 41.7046 87.2747 41.6231 87.5005 41.4601C87.7387 41.297 87.8579 41.0839 87.8579 40.8205C87.8579 40.6449 87.8077 40.4882 87.7074 40.3502C87.6196 40.2123 87.419 40.0555 87.1054 39.88C86.7919 39.7044 86.3028 39.4787 85.6382 39.2028C84.9986 38.9269 84.4719 38.6572 84.0581 38.3939C83.6442 38.118 83.337 37.7919 83.1363 37.4157C82.9357 37.027 82.8354 36.5441 82.8354 35.9673C82.8354 35.0142 83.2053 34.2994 83.9452 33.8228C84.6851 33.3463 85.6695 33.108 86.8985 33.108C87.5381 33.108 88.1463 33.1707 88.7232 33.2961C89.3001 33.4215 89.8957 33.6285 90.5102 33.9169L89.6637 35.9297C89.3251 35.7792 88.9991 35.6475 88.6856 35.5346C88.372 35.4218 88.0648 35.334 87.7638 35.2713C87.4754 35.2086 87.1744 35.1772 86.8609 35.1772C86.4471 35.1772 86.1335 35.2337 85.9204 35.3465C85.7197 35.4594 85.6194 35.6287 85.6194 35.8544C85.6194 36.0174 85.6695 36.1679 85.7699 36.3059C85.8827 36.4313 86.0897 36.5692 86.3906 36.7197C86.7041 36.8702 87.1619 37.0709 87.7638 37.3217C88.3532 37.5599 88.8611 37.8108 89.2875 38.0741C89.7139 38.3249 90.0399 38.6447 90.2657 39.0335C90.504 39.4097 90.6231 39.905 90.6231 40.5195ZM99.9734 40.5195C99.9734 41.2093 99.8104 41.7987 99.4844 42.2878C99.1583 42.7643 98.6692 43.128 98.0171 43.3788C97.365 43.6296 96.5561 43.755 95.5905 43.755C94.8757 43.755 94.2612 43.7048 93.747 43.6045C93.2329 43.5167 92.7187 43.3662 92.2045 43.1531V40.8393C92.7563 41.0901 93.352 41.297 93.9916 41.4601C94.6311 41.6231 95.1955 41.7046 95.6845 41.7046C96.2363 41.7046 96.6251 41.6231 96.8508 41.4601C97.0891 41.297 97.2082 41.0839 97.2082 40.8205C97.2082 40.6449 97.1581 40.4882 97.0577 40.3502C96.97 40.2123 96.7693 40.0555 96.4558 39.88C96.1423 39.7044 95.6532 39.4787 94.9885 39.2028C94.349 38.9269 93.8223 38.6572 93.4084 38.3939C92.9946 38.118 92.6873 37.7919 92.4867 37.4157C92.286 37.027 92.1857 36.5441 92.1857 35.9673C92.1857 35.0142 92.5557 34.2994 93.2956 33.8228C94.0355 33.3463 95.0199 33.108 96.2489 33.108C96.8884 33.108 97.4967 33.1707 98.0735 33.2961C98.6504 33.4215 99.2461 33.6285 99.8606 33.9169L99.0141 35.9297C98.6755 35.7792 98.3494 35.6475 98.0359 35.5346C97.7224 35.4218 97.4152 35.334 97.1142 35.2713C96.8257 35.2086 96.5248 35.1772 96.2113 35.1772C95.7974 35.1772 95.4839 35.2337 95.2707 35.3465C95.0701 35.4594 94.9697 35.6287 94.9697 35.8544C94.9697 36.0174 95.0199 36.1679 95.1202 36.3059C95.2331 36.4313 95.44 36.5692 95.741 36.7197C96.0545 36.8702 96.5122 37.0709 97.1142 37.3217C97.7036 37.5599 98.2115 37.8108 98.6379 38.0741C99.0642 38.3249 99.3903 38.6447 99.616 39.0335C99.8543 39.4097 99.9734 39.905 99.9734 40.5195ZM111.37 41.5165C111.683 41.5165 111.984 41.4852 112.273 41.4224C112.561 41.3597 112.85 41.2845 113.138 41.1967V43.2847C112.837 43.4101 112.461 43.5167 112.009 43.6045C111.57 43.7048 111.088 43.755 110.561 43.755C109.946 43.755 109.395 43.6547 108.906 43.454C108.429 43.2534 108.047 42.9085 107.758 42.4194C107.482 41.9178 107.344 41.2281 107.344 40.3502V35.403H106.009V34.2179L107.551 33.2773L108.36 31.1141H110.147V33.2961H113.025V35.403H110.147V40.3502C110.147 40.739 110.26 41.0337 110.486 41.2343C110.711 41.4224 111.006 41.5165 111.37 41.5165ZM120.937 33.108C121.075 33.108 121.238 33.1143 121.426 33.1268C121.614 33.1394 121.765 33.1582 121.877 33.1833L121.671 35.8168C121.583 35.7917 121.451 35.7729 121.275 35.7604C121.112 35.7353 120.968 35.7227 120.843 35.7227C120.479 35.7227 120.128 35.7729 119.789 35.8732C119.451 35.961 119.144 36.1052 118.868 36.3059C118.604 36.5065 118.391 36.7762 118.228 37.1147C118.078 37.4408 118.002 37.8484 118.002 38.3375V43.5669H115.2V33.2961H117.325L117.739 35.0267H117.871C118.071 34.6756 118.322 34.3558 118.623 34.0674C118.924 33.7789 119.269 33.5469 119.658 33.3714C120.059 33.1958 120.485 33.108 120.937 33.108ZM127.588 33.0892C128.967 33.0892 130.021 33.3902 130.748 33.9921C131.488 34.5815 131.858 35.4907 131.858 36.7197V43.5669H129.902L129.356 42.1749H129.281C128.992 42.5386 128.691 42.8395 128.378 43.0778C128.077 43.3161 127.726 43.4854 127.325 43.5857C126.936 43.6986 126.453 43.755 125.876 43.755C125.274 43.755 124.729 43.6421 124.24 43.4164C123.763 43.1781 123.387 42.8207 123.111 42.3442C122.835 41.8551 122.697 41.2406 122.697 40.5007C122.697 39.4097 123.08 38.6071 123.844 38.0929C124.609 37.5662 125.757 37.2778 127.287 37.2276L129.074 37.1712V36.7197C129.074 36.1805 128.93 35.7854 128.641 35.5346C128.365 35.2838 127.977 35.1584 127.475 35.1584C126.973 35.1584 126.484 35.2337 126.008 35.3841C125.531 35.5221 125.055 35.6977 124.578 35.9108L123.656 34.0109C124.208 33.7225 124.816 33.4968 125.481 33.3338C126.158 33.1707 126.861 33.0892 127.588 33.0892ZM127.983 38.8454C127.08 38.8704 126.453 39.0335 126.102 39.3344C125.751 39.6354 125.575 40.0304 125.575 40.5195C125.575 40.9459 125.701 41.2532 125.951 41.4413C126.202 41.6168 126.528 41.7046 126.929 41.7046C127.531 41.7046 128.039 41.529 128.453 41.1779C128.867 40.8142 129.074 40.3063 129.074 39.6542V38.8077L127.983 38.8454ZM138.903 43.755C137.887 43.755 137.022 43.5732 136.307 43.2095C135.592 42.8333 135.047 42.2564 134.67 41.4789C134.294 40.7014 134.106 39.7044 134.106 38.4879C134.106 37.2339 134.319 36.2118 134.746 35.4218C135.172 34.6317 135.762 34.0486 136.514 33.6723C137.279 33.2961 138.157 33.108 139.147 33.108C139.85 33.108 140.458 33.177 140.972 33.3149C141.499 33.4529 141.957 33.6159 142.345 33.804L141.518 35.9673C141.079 35.7917 140.665 35.6475 140.276 35.5346C139.9 35.4218 139.524 35.3653 139.147 35.3653C138.658 35.3653 138.251 35.4845 137.925 35.7227C137.599 35.9485 137.354 36.2933 137.191 36.7573C137.041 37.2088 136.965 37.7794 136.965 38.4691C136.965 39.1463 137.047 39.7107 137.21 40.1621C137.386 40.601 137.636 40.9334 137.962 41.1591C138.288 41.3723 138.683 41.4789 139.147 41.4789C139.737 41.4789 140.257 41.4036 140.709 41.2532C141.16 41.0901 141.599 40.8707 142.026 40.5948V42.9838C141.599 43.2596 141.148 43.454 140.671 43.5669C140.207 43.6923 139.618 43.755 138.903 43.755ZM147.192 35.6663C147.192 36.0551 147.174 36.4438 147.136 36.8326C147.111 37.2088 147.08 37.5913 147.042 37.9801H147.08C147.205 37.8045 147.33 37.6289 147.456 37.4533C147.594 37.2778 147.732 37.1022 147.87 36.9266C148.008 36.7511 148.152 36.5818 148.302 36.4187L151.18 33.2961H154.341L150.259 37.7543L154.585 43.5669H151.35L148.396 39.4097L147.192 40.369V43.5669H144.39V29.2706H147.192V35.6663ZM158.857 33.2961V43.5669H156.055V33.2961H158.857ZM157.465 29.2706C157.879 29.2706 158.237 29.3709 158.538 29.5716C158.839 29.7597 158.989 30.1171 158.989 30.6438C158.989 31.158 158.839 31.5154 158.538 31.716C158.237 31.9167 157.879 32.017 157.465 32.017C157.039 32.017 156.675 31.9167 156.374 31.716C156.086 31.5154 155.942 31.158 155.942 30.6438C155.942 30.1171 156.086 29.7597 156.374 29.5716C156.675 29.3709 157.039 29.2706 157.465 29.2706ZM167.617 33.108C168.721 33.108 169.605 33.409 170.27 34.0109C170.934 34.6004 171.267 35.5534 171.267 36.8702V43.5669H168.464V37.5662C168.464 36.8263 168.332 36.2745 168.069 35.9108C167.805 35.5346 167.385 35.3465 166.808 35.3465C165.956 35.3465 165.373 35.6412 165.059 36.2306C164.746 36.8075 164.589 37.6415 164.589 38.7325V43.5669H161.786V33.2961H163.93L164.307 34.6129H164.457C164.683 34.2618 164.959 33.9796 165.285 33.7664C165.611 33.5407 165.975 33.3776 166.376 33.2773C166.777 33.1645 167.191 33.108 167.617 33.108ZM177.479 33.108C178.106 33.108 178.67 33.2334 179.172 33.4842C179.673 33.7351 180.1 34.1113 180.451 34.6129H180.526L180.752 33.2961H183.122V43.5857C183.122 44.5639 182.927 45.3853 182.539 46.0499C182.162 46.7146 181.592 47.2162 180.827 47.5548C180.062 47.9059 179.115 48.0815 177.986 48.0815C177.259 48.0815 176.582 48.0376 175.955 47.9498C175.34 47.8621 174.738 47.7053 174.149 47.4796V45.2411C174.575 45.4166 175.002 45.5609 175.428 45.6737C175.867 45.7991 176.312 45.8869 176.764 45.9371C177.228 45.9998 177.692 46.0311 178.156 46.0311C178.883 46.0311 179.422 45.8367 179.773 45.448C180.137 45.0592 180.319 44.4761 180.319 43.6986V43.4917C180.319 43.2785 180.325 43.059 180.338 42.8333C180.363 42.6075 180.382 42.4069 180.394 42.2313H180.319C179.968 42.7706 179.548 43.1593 179.059 43.3976C178.57 43.6359 178.018 43.755 177.403 43.755C176.187 43.755 175.234 43.291 174.544 42.363C173.867 41.4224 173.528 40.1182 173.528 38.4503C173.528 37.3217 173.685 36.3623 173.999 35.5723C174.312 34.7697 174.764 34.1614 175.353 33.7476C175.955 33.3212 176.663 33.108 177.479 33.108ZM178.363 35.3841C177.924 35.3841 177.554 35.5033 177.253 35.7416C176.964 35.9673 176.745 36.3121 176.594 36.7762C176.456 37.2276 176.388 37.7982 176.388 38.4879C176.388 39.5163 176.551 40.2875 176.877 40.8017C177.203 41.3033 177.711 41.5541 178.4 41.5541C178.764 41.5541 179.077 41.5102 179.341 41.4224C179.604 41.3221 179.817 41.1654 179.98 40.9522C180.156 40.7264 180.288 40.438 180.375 40.0869C180.463 39.7357 180.507 39.3094 180.507 38.8077V38.4691C180.507 37.7292 180.432 37.1336 180.281 36.6821C180.131 36.2306 179.899 35.9046 179.585 35.7039C179.272 35.4907 178.864 35.3841 178.363 35.3841Z" fill="white"/>
<line x1="155.915" y1="144.3" x2="257.285" y2="144.3" stroke="#2D2E5F" stroke-width="3.13515" stroke-linecap="round" stroke-linejoin="round"/>
<line x1="155.915" y1="144.3" x2="242.132" y2="144.3" stroke="#019EFF" stroke-width="3.13515" stroke-linecap="round" stroke-linejoin="round"/>
<path d="M197.299 87.7968C196.782 87.7968 196.319 87.8895 195.909 88.0748C195.499 88.2504 195.148 88.5137 194.856 88.8649C194.573 89.216 194.353 89.6403 194.197 90.1377C194.051 90.6352 193.978 91.196 193.978 91.8203C193.978 92.6396 194.1 93.3516 194.344 93.9564C194.588 94.5513 194.953 95.0098 195.441 95.3316C195.929 95.6535 196.543 95.8145 197.284 95.8145C197.733 95.8145 198.162 95.7754 198.572 95.6974C198.991 95.6096 199.416 95.4975 199.845 95.3609V96.7216C199.435 96.8776 199.016 96.9898 198.587 97.0581C198.157 97.1361 197.66 97.1751 197.094 97.1751C196.031 97.1751 195.143 96.9557 194.431 96.5167C193.729 96.0778 193.202 95.4536 192.851 94.644C192.5 93.8344 192.325 92.8883 192.325 91.8056C192.325 91.0156 192.432 90.2938 192.646 89.6403C192.871 88.977 193.193 88.4064 193.612 87.9285C194.032 87.4506 194.548 87.0848 195.163 86.8312C195.787 86.5678 196.504 86.4362 197.314 86.4362C197.84 86.4362 198.357 86.4947 198.865 86.6117C199.372 86.719 199.83 86.8751 200.24 87.0799L199.655 88.3967C199.313 88.2406 198.943 88.1041 198.543 87.987C198.153 87.8602 197.738 87.7968 197.299 87.7968ZM203.47 97.0288H201.92V85.9095H203.47V97.0288ZM207.457 89.1429V97.0288H205.906V89.1429H207.457ZM206.696 86.1436C206.93 86.1436 207.135 86.2118 207.31 86.3484C207.486 86.4849 207.574 86.7142 207.574 87.036C207.574 87.3482 207.486 87.5774 207.31 87.7237C207.135 87.8602 206.93 87.9285 206.696 87.9285C206.442 87.9285 206.228 87.8602 206.052 87.7237C205.886 87.5774 205.804 87.3482 205.804 87.036C205.804 86.7142 205.886 86.4849 206.052 86.3484C206.228 86.2118 206.442 86.1436 206.696 86.1436ZM213.067 97.1751C212.345 97.1751 211.711 97.0337 211.165 96.7508C210.619 96.468 210.195 96.029 209.892 95.4341C209.59 94.8293 209.439 94.0637 209.439 93.137C209.439 92.1617 209.6 91.3716 209.921 90.7669C210.253 90.1621 210.697 89.7183 211.253 89.4355C211.819 89.1429 212.462 88.9965 213.184 88.9965C213.623 88.9965 214.033 89.0453 214.413 89.1429C214.803 89.2306 215.125 89.3331 215.379 89.4501L214.911 90.7083C214.637 90.601 214.345 90.5084 214.033 90.4304C213.73 90.3523 213.443 90.3133 213.17 90.3133C212.682 90.3133 212.277 90.4206 211.955 90.6352C211.643 90.84 211.409 91.1521 211.253 91.5716C211.107 91.9812 211.033 92.4982 211.033 93.1224C211.033 93.7174 211.111 94.2197 211.268 94.6294C211.424 95.039 211.653 95.3512 211.955 95.5657C212.267 95.7706 212.653 95.873 213.111 95.873C213.55 95.873 213.935 95.8242 214.267 95.7267C214.598 95.6291 214.911 95.5023 215.203 95.3463V96.6923C214.92 96.8581 214.613 96.98 214.281 97.0581C213.95 97.1361 213.545 97.1751 213.067 97.1751ZM218.601 91.4691C218.601 91.674 218.591 91.9081 218.572 92.1714C218.562 92.4348 218.547 92.6786 218.528 92.9029H218.572C218.65 92.8054 218.742 92.6884 218.85 92.5518C218.967 92.4055 219.084 92.2592 219.201 92.1129C219.318 91.9666 219.425 91.8398 219.523 91.7325L221.937 89.1429H223.736L220.561 92.5225L223.941 97.0288H222.112L219.508 93.5028L218.601 94.2636V97.0288H217.065V85.9095H218.601V91.4691ZM230.475 94.8049C230.475 95.3219 230.348 95.7559 230.095 96.1071C229.841 96.4582 229.475 96.7264 228.997 96.9118C228.519 97.0873 227.944 97.1751 227.271 97.1751C226.715 97.1751 226.237 97.1312 225.837 97.0434C225.447 96.9654 225.086 96.8484 224.755 96.6923V95.3316C225.106 95.4975 225.51 95.6486 225.969 95.7852C226.427 95.912 226.876 95.9754 227.315 95.9754C227.9 95.9754 228.32 95.8827 228.573 95.6974C228.836 95.5121 228.968 95.2634 228.968 94.9512C228.968 94.7757 228.919 94.6196 228.822 94.4831C228.724 94.3368 228.539 94.1904 228.266 94.0441C228.003 93.8881 227.612 93.7125 227.095 93.5174C226.598 93.3126 226.174 93.1127 225.823 92.9176C225.471 92.7127 225.203 92.4738 225.018 92.2007C224.833 91.9178 224.74 91.5569 224.74 91.118C224.74 90.4352 225.013 89.9134 225.559 89.5525C226.115 89.1819 226.847 88.9965 227.754 88.9965C228.232 88.9965 228.68 89.0453 229.1 89.1429C229.529 89.2306 229.944 89.3672 230.343 89.5525L229.831 90.7376C229.607 90.6303 229.373 90.5425 229.129 90.4742C228.895 90.3962 228.656 90.3328 228.412 90.284C228.178 90.2353 227.934 90.2109 227.681 90.2109C227.212 90.2109 226.856 90.284 226.613 90.4304C226.369 90.5767 226.247 90.7815 226.247 91.0448C226.247 91.2302 226.3 91.3911 226.408 91.5277C226.525 91.6642 226.725 91.8008 227.008 91.9373C227.291 92.0739 227.676 92.2397 228.163 92.4348C228.651 92.6201 229.066 92.8103 229.407 93.0054C229.758 93.2004 230.022 93.4394 230.197 93.7223C230.382 94.0051 230.475 94.366 230.475 94.8049Z" fill="#F2F2F2"/>
<path d="M164.487 130.335H155.1V128.36L158.467 124.956C159.144 124.253 159.69 123.67 160.104 123.206C160.518 122.73 160.819 122.303 161.007 121.927C161.195 121.538 161.289 121.124 161.289 120.685C161.289 120.146 161.138 119.745 160.837 119.482C160.549 119.218 160.154 119.087 159.652 119.087C159.138 119.087 158.637 119.206 158.147 119.444C157.658 119.682 157.144 120.021 156.605 120.46L155.062 118.635C155.451 118.296 155.859 117.983 156.285 117.695C156.724 117.406 157.226 117.174 157.79 116.999C158.367 116.81 159.057 116.716 159.859 116.716C160.737 116.716 161.49 116.879 162.117 117.205C162.756 117.519 163.245 117.952 163.584 118.503C163.935 119.043 164.111 119.657 164.111 120.347C164.111 120.911 164.023 121.432 163.847 121.908C163.684 122.385 163.44 122.849 163.114 123.3C162.8 123.739 162.411 124.197 161.947 124.673C161.483 125.137 160.957 125.645 160.367 126.197L158.637 127.815V127.946H164.487V130.335ZM169.326 128.36C169.213 128.799 169.069 129.276 168.893 129.79C168.718 130.292 168.53 130.793 168.329 131.295C168.129 131.809 167.922 132.298 167.708 132.762H165.696C165.821 132.26 165.94 131.734 166.053 131.182C166.166 130.643 166.273 130.11 166.373 129.583C166.473 129.056 166.555 128.58 166.617 128.153H169.194L169.326 128.36ZM180.917 127.551H179.299V130.335H176.534V127.551H170.796V125.576L176.684 116.904H179.299V125.351H180.917V127.551ZM176.534 123.074C176.534 122.861 176.534 122.61 176.534 122.322C176.546 122.021 176.559 121.726 176.571 121.438C176.584 121.137 176.596 120.874 176.609 120.648C176.621 120.41 176.634 120.247 176.647 120.159H176.571C176.458 120.41 176.339 120.654 176.214 120.892C176.088 121.131 175.938 121.375 175.762 121.626L173.298 125.351H176.534V123.074ZM191.38 130.335H181.994V128.36L185.361 124.956C186.038 124.253 186.584 123.67 186.998 123.206C187.411 122.73 187.712 122.303 187.9 121.927C188.089 121.538 188.183 121.124 188.183 120.685C188.183 120.146 188.032 119.745 187.731 119.482C187.443 119.218 187.048 119.087 186.546 119.087C186.032 119.087 185.53 119.206 185.041 119.444C184.552 119.682 184.038 120.021 183.499 120.46L181.956 118.635C182.345 118.296 182.753 117.983 183.179 117.695C183.618 117.406 184.119 117.174 184.684 116.999C185.261 116.81 185.95 116.716 186.753 116.716C187.631 116.716 188.383 116.879 189.01 117.205C189.65 117.519 190.139 117.952 190.478 118.503C190.829 119.043 191.004 119.657 191.004 120.347C191.004 120.911 190.916 121.432 190.741 121.908C190.578 122.385 190.333 122.849 190.007 123.3C189.694 123.739 189.305 124.197 188.841 124.673C188.377 125.137 187.85 125.645 187.261 126.197L185.53 127.815V127.946H191.38V130.335ZM205.531 119.877C206.698 119.877 207.575 120.178 208.165 120.78C208.767 121.369 209.068 122.322 209.068 123.639V130.335H206.265V124.335C206.265 123.595 206.14 123.043 205.889 122.679C205.638 122.303 205.249 122.115 204.722 122.115C203.983 122.115 203.456 122.378 203.142 122.905C202.829 123.432 202.672 124.191 202.672 125.181V130.335H199.869V124.335C199.869 123.846 199.813 123.438 199.7 123.112C199.587 122.786 199.418 122.541 199.192 122.378C198.966 122.203 198.678 122.115 198.327 122.115C197.813 122.115 197.405 122.247 197.104 122.51C196.803 122.773 196.59 123.156 196.464 123.658C196.339 124.159 196.276 124.774 196.276 125.501V130.335H193.473V120.065H195.618L195.994 121.381H196.145C196.358 121.03 196.621 120.748 196.935 120.535C197.248 120.309 197.593 120.146 197.969 120.046C198.358 119.933 198.747 119.877 199.136 119.877C199.888 119.877 200.528 120.002 201.054 120.253C201.581 120.491 201.982 120.867 202.258 121.381H202.503C202.816 120.855 203.249 120.472 203.801 120.234C204.365 119.996 204.942 119.877 205.531 119.877Z" fill="white"/>
<g filter="url(#filter0_d_372_138)">
<rect x="153.824" y="77.4155" width="26.1263" height="26.1263" rx="6.27031" fill="#019EFF"/>
</g>
<path d="M172.542 84.924C172.538 84.9014 172.527 84.8807 172.511 84.8641C172.494 84.8476 172.474 84.836 172.452 84.8306C170.957 84.4653 167.505 85.7672 165.634 87.6369C165.301 87.9679 164.997 88.3273 164.725 88.711C164.148 88.66 163.572 88.7026 163.08 88.9169C161.693 89.5274 161.289 91.1204 161.177 91.8056C161.17 91.8431 161.173 91.8816 161.184 91.918C161.195 91.9544 161.214 91.9878 161.24 92.0155C161.266 92.0432 161.298 92.0645 161.334 92.0776C161.37 92.0908 161.408 92.0955 161.446 92.0914L163.673 91.8457C163.675 92.0136 163.685 92.1814 163.704 92.3483C163.715 92.4642 163.766 92.5725 163.849 92.6544L164.712 93.5149C164.794 93.5976 164.902 93.649 165.018 93.6603C165.184 93.6789 165.35 93.689 165.517 93.6907L165.273 95.9154C165.269 95.9532 165.274 95.9914 165.287 96.0271C165.3 96.0628 165.321 96.0949 165.349 96.121C165.377 96.147 165.41 96.1663 165.446 96.1774C165.483 96.1884 165.521 96.1908 165.559 96.1845C166.243 96.0748 167.839 95.671 168.445 94.2839C168.66 93.7922 168.704 93.2182 168.654 92.6442C169.039 92.373 169.399 92.0687 169.731 91.735C171.607 89.868 172.902 86.4925 172.542 84.924ZM167.859 89.5077C167.688 89.3365 167.571 89.1183 167.524 88.8808C167.476 88.6432 167.5 88.3969 167.593 88.1731C167.686 87.9493 167.843 87.758 168.044 87.6234C168.246 87.4888 168.482 87.417 168.725 87.417C168.967 87.417 169.204 87.4888 169.405 87.6234C169.606 87.758 169.763 87.9493 169.856 88.1731C169.949 88.3969 169.973 88.6432 169.926 88.8808C169.878 89.1183 169.762 89.3365 169.59 89.5077C169.477 89.6215 169.342 89.7118 169.193 89.7734C169.045 89.835 168.885 89.8667 168.725 89.8667C168.564 89.8667 168.405 89.835 168.256 89.7734C168.108 89.7118 167.973 89.6215 167.859 89.5077Z" fill="white"/>
<path d="M164.653 94.1383C164.513 94.2783 164.289 94.3329 164.019 94.3796C163.413 94.4829 162.877 93.9589 162.986 93.3458C163.028 93.1134 163.151 92.7876 163.227 92.7111C163.244 92.6947 163.255 92.6734 163.259 92.6503C163.263 92.6273 163.259 92.6035 163.249 92.5825C163.239 92.5614 163.222 92.5442 163.201 92.5331C163.181 92.5221 163.157 92.5179 163.134 92.521C162.795 92.5625 162.479 92.7163 162.238 92.9578C161.638 93.5581 161.581 95.7856 161.581 95.7856C161.581 95.7856 163.81 95.7289 164.41 95.1286C164.652 94.8872 164.806 94.5712 164.847 94.2316C164.856 94.125 164.726 94.0615 164.653 94.1383Z" fill="white"/>
<line x1="21.2536" y1="144.3" x2="122.624" y2="144.3" stroke="#2D2E5F" stroke-width="3.13515" stroke-linecap="round" stroke-linejoin="round"/>
<line x1="21.2536" y1="144.3" x2="87.0919" y2="144.3" stroke="#019EFF" stroke-width="3.13515" stroke-linecap="round" stroke-linejoin="round"/>
<path d="M66.2807 93.3419C66.2807 94.0637 66.1296 94.7172 65.8272 95.3024C65.5346 95.8779 65.081 96.3363 64.4665 96.6777C63.852 97.0093 63.0766 97.1751 62.1402 97.1751C60.8137 97.1751 59.8042 96.824 59.1117 96.1217C58.4289 95.4097 58.0875 94.4733 58.0875 93.3126V86.5825H59.6677V93.2395C59.6677 94.0978 59.8774 94.7464 60.2968 95.1853C60.7162 95.6145 61.3551 95.8291 62.2134 95.8291C62.7986 95.8291 63.2766 95.7218 63.6472 95.5072C64.0179 95.2926 64.2861 94.9951 64.4519 94.6147C64.6275 94.2246 64.7152 93.7613 64.7152 93.2248V86.5825H66.2807V93.3419ZM74.0391 94.8049C74.0391 95.3219 73.9123 95.7559 73.6587 96.1071C73.4051 96.4582 73.0394 96.7264 72.5614 96.9118C72.0835 97.0873 71.508 97.1751 70.835 97.1751C70.279 97.1751 69.8011 97.1312 69.4012 97.0434C69.011 96.9654 68.6501 96.8484 68.3185 96.6923V95.3316C68.6697 95.4975 69.0744 95.6486 69.5329 95.7852C69.9913 95.912 70.44 95.9754 70.8789 95.9754C71.4641 95.9754 71.8835 95.8827 72.1371 95.6974C72.4005 95.5121 72.5322 95.2634 72.5322 94.9512C72.5322 94.7757 72.4834 94.6196 72.3859 94.4831C72.2883 94.3368 72.103 94.1904 71.8299 94.0441C71.5665 93.8881 71.1764 93.7125 70.6594 93.5174C70.162 93.3126 69.7377 93.1127 69.3866 92.9176C69.0354 92.7127 68.7672 92.4738 68.5819 92.2007C68.3965 91.9178 68.3039 91.5569 68.3039 91.118C68.3039 90.4352 68.577 89.9134 69.1232 89.5525C69.6792 89.1819 70.4107 88.9965 71.3178 88.9965C71.7958 88.9965 72.2444 89.0453 72.6638 89.1429C73.093 89.2306 73.5075 89.3672 73.9075 89.5525L73.3954 90.7376C73.171 90.6303 72.9369 90.5425 72.6931 90.4742C72.459 90.3962 72.22 90.3328 71.9762 90.284C71.7421 90.2353 71.4983 90.2109 71.2447 90.2109C70.7765 90.2109 70.4205 90.284 70.1766 90.4304C69.9328 90.5767 69.8109 90.7815 69.8109 91.0448C69.8109 91.2302 69.8645 91.3911 69.9718 91.5277C70.0888 91.6642 70.2888 91.8008 70.5716 91.9373C70.8545 92.0739 71.2398 92.2397 71.7275 92.4348C72.2152 92.6201 72.6297 92.8103 72.9711 93.0054C73.3222 93.2004 73.5856 93.4394 73.7611 93.7223C73.9465 94.0051 74.0391 94.366 74.0391 94.8049ZM78.9898 88.9965C79.6823 88.9965 80.2773 89.1429 80.7747 89.4355C81.2722 89.7183 81.6526 90.128 81.9159 90.6644C82.189 91.2009 82.3256 91.8349 82.3256 92.5664V93.415H77.0293C77.0488 94.2246 77.2585 94.844 77.6584 95.2731C78.0681 95.7023 78.6387 95.9169 79.3702 95.9169C79.8774 95.9169 80.3261 95.873 80.7162 95.7852C81.1161 95.6877 81.5258 95.5462 81.9452 95.3609V96.6484C81.555 96.824 81.1551 96.9557 80.7455 97.0434C80.3456 97.1312 79.8676 97.1751 79.3117 97.1751C78.5509 97.1751 77.8779 97.0239 77.2926 96.7216C76.7074 96.4192 76.249 95.9705 75.9173 95.3755C75.5955 94.7708 75.4345 94.0295 75.4345 93.1517C75.4345 92.2641 75.5808 91.513 75.8735 90.8985C76.1758 90.284 76.5904 89.8159 77.1171 89.494C77.6535 89.1624 78.2778 88.9965 78.9898 88.9965ZM78.9898 90.1963C78.4338 90.1963 77.9852 90.3767 77.6438 90.7376C77.3121 91.0985 77.1171 91.6106 77.0585 92.2738H80.7747C80.7747 91.8642 80.7113 91.5033 80.5845 91.1912C80.4577 90.879 80.2627 90.6352 79.9993 90.4596C79.736 90.284 79.3995 90.1963 78.9898 90.1963ZM88.1525 88.9965C88.2891 88.9965 88.4402 89.0063 88.6061 89.0258C88.7719 89.0356 88.9084 89.0502 89.0157 89.0697L88.8548 90.5181C88.7475 90.4889 88.6207 90.4645 88.4744 90.445C88.3281 90.4255 88.1915 90.4157 88.0647 90.4157C87.7721 90.4157 87.4893 90.4742 87.2161 90.5913C86.9528 90.6986 86.7138 90.8595 86.4992 91.0741C86.2847 91.2789 86.114 91.5325 85.9872 91.8349C85.8701 92.1373 85.8116 92.4835 85.8116 92.8737V97.0288H84.2607V89.1429H85.4897L85.6946 90.5474H85.7531C85.9189 90.2645 86.1188 90.0061 86.3529 89.772C86.587 89.5379 86.8553 89.3526 87.1576 89.216C87.46 89.0697 87.7916 88.9965 88.1525 88.9965ZM95.7137 94.8049C95.7137 95.3219 95.5869 95.7559 95.3333 96.1071C95.0797 96.4582 94.714 96.7264 94.236 96.9118C93.7581 97.0873 93.1826 97.1751 92.5096 97.1751C91.9536 97.1751 91.4757 97.1312 91.0758 97.0434C90.6856 96.9654 90.3248 96.8484 89.9931 96.6923V95.3316C90.3443 95.4975 90.749 95.6486 91.2075 95.7852C91.6659 95.912 92.1146 95.9754 92.5535 95.9754C93.1387 95.9754 93.5581 95.8827 93.8117 95.6974C94.0751 95.5121 94.2068 95.2634 94.2068 94.9512C94.2068 94.7757 94.158 94.6196 94.0605 94.4831C93.9629 94.3368 93.7776 94.1904 93.5045 94.0441C93.2411 93.8881 92.851 93.7125 92.334 93.5174C91.8366 93.3126 91.4123 93.1127 91.0612 92.9176C90.71 92.7127 90.4418 92.4738 90.2565 92.2007C90.0712 91.9178 89.9785 91.5569 89.9785 91.118C89.9785 90.4352 90.2516 89.9134 90.7978 89.5525C91.3538 89.1819 92.0853 88.9965 92.9924 88.9965C93.4704 88.9965 93.919 89.0453 94.3384 89.1429C94.7676 89.2306 95.1822 89.3672 95.5821 89.5525L95.07 90.7376C94.8456 90.6303 94.6116 90.5425 94.3677 90.4742C94.1336 90.3962 93.8946 90.3328 93.6508 90.284C93.4167 90.2353 93.1729 90.2109 92.9193 90.2109C92.4511 90.2109 92.0951 90.284 91.8512 90.4304C91.6074 90.5767 91.4855 90.7815 91.4855 91.0448C91.4855 91.2302 91.5391 91.3911 91.6464 91.5277C91.7634 91.6642 91.9634 91.8008 92.2463 91.9373C92.5291 92.0739 92.9144 92.2397 93.4021 92.4348C93.8898 92.6201 94.3043 92.8103 94.6457 93.0054C94.9968 93.2004 95.2602 93.4394 95.4358 93.7223C95.6211 94.0051 95.7137 94.366 95.7137 94.8049Z" fill="#F2F2F2"/>
<path d="M29.2984 119.914C29.2984 120.529 29.1667 121.062 28.9034 121.513C28.6526 121.965 28.3077 122.335 27.8688 122.623C27.4424 122.911 26.9533 123.125 26.4015 123.263V123.319C27.48 123.444 28.2952 123.77 28.847 124.297C29.4113 124.824 29.6934 125.532 29.6934 126.423C29.6934 127.2 29.4991 127.903 29.1103 128.53C28.7341 129.144 28.1447 129.633 27.3421 129.997C26.552 130.348 25.53 130.524 24.2759 130.524C23.536 130.524 22.8463 130.461 22.2067 130.335C21.5671 130.21 20.9652 130.028 20.4009 129.79V127.382C20.9777 127.671 21.5797 127.89 22.2067 128.041C22.8463 128.191 23.4357 128.266 23.9749 128.266C24.9907 128.266 25.6993 128.091 26.1006 127.74C26.5144 127.388 26.7213 126.893 26.7213 126.253C26.7213 125.877 26.6273 125.564 26.4392 125.313C26.251 125.05 25.9187 124.855 25.4422 124.73C24.9782 124.592 24.3261 124.523 23.4858 124.523H22.4701V122.341H23.5047C24.3323 122.341 24.9594 122.266 25.3857 122.115C25.8247 121.952 26.1194 121.739 26.2699 121.476C26.4329 121.2 26.5144 120.886 26.5144 120.535C26.5144 120.058 26.3639 119.688 26.0629 119.425C25.7745 119.149 25.2854 119.011 24.5957 119.011C24.1693 119.011 23.7805 119.068 23.4294 119.181C23.0783 119.281 22.7585 119.406 22.4701 119.557C22.1942 119.707 21.9496 119.851 21.7364 119.989L20.4197 118.033C20.7708 117.782 21.1596 117.557 21.5859 117.356C22.0249 117.155 22.5077 116.999 23.0344 116.886C23.5611 116.773 24.1505 116.716 24.8026 116.716C26.1821 116.716 27.2731 116.999 28.0757 117.563C28.8908 118.115 29.2984 118.898 29.2984 119.914ZM40.59 130.335H31.2033V128.36L34.5705 124.956C35.2477 124.253 35.7932 123.67 36.207 123.206C36.6209 122.73 36.9218 122.303 37.1099 121.927C37.2981 121.538 37.3921 121.124 37.3921 120.685C37.3921 120.146 37.2416 119.745 36.9406 119.482C36.6522 119.218 36.2572 119.087 35.7556 119.087C35.2414 119.087 34.7398 119.206 34.2507 119.444C33.7616 119.682 33.2474 120.021 32.7082 120.46L31.1657 118.635C31.5545 118.296 31.962 117.983 32.3884 117.695C32.8273 117.406 33.329 117.174 33.8933 116.999C34.4701 116.81 35.1599 116.716 35.9625 116.716C36.8403 116.716 37.5928 116.879 38.2198 117.205C38.8594 117.519 39.3484 117.952 39.687 118.503C40.0382 119.043 40.2137 119.657 40.2137 120.347C40.2137 120.911 40.126 121.432 39.9504 121.908C39.7874 122.385 39.5428 122.849 39.2168 123.3C38.9033 123.739 38.5145 124.197 38.0505 124.673C37.5865 125.137 37.0598 125.645 36.4704 126.197L34.7398 127.815V127.946H40.59V130.335ZM45.4294 128.36C45.3165 128.799 45.1723 129.276 44.9967 129.79C44.8211 130.292 44.633 130.793 44.4324 131.295C44.2317 131.809 44.0248 132.298 43.8116 132.762H41.7989C41.9243 132.26 42.0434 131.734 42.1563 131.182C42.2691 130.643 42.3757 130.11 42.4761 129.583C42.5764 129.056 42.6579 128.58 42.7206 128.153H45.2977L45.4294 128.36ZM56.6624 122.642C56.6624 123.407 56.606 124.172 56.4931 124.937C56.3803 125.689 56.1796 126.404 55.8912 127.081C55.6153 127.746 55.2203 128.341 54.7061 128.868C54.2045 129.382 53.5586 129.79 52.7686 130.091C51.9911 130.379 51.0442 130.524 49.9281 130.524C49.6648 130.524 49.3575 130.511 49.0064 130.486C48.6552 130.473 48.3605 130.442 48.1223 130.392V128.116C48.3731 128.166 48.6364 128.21 48.9123 128.247C49.1882 128.285 49.4641 128.304 49.74 128.304C50.5802 128.304 51.27 128.204 51.8092 128.003C52.361 127.802 52.7936 127.514 53.1072 127.138C53.4207 126.761 53.6464 126.316 53.7844 125.802C53.9348 125.288 54.0226 124.724 54.0477 124.109H53.9348C53.7593 124.397 53.5461 124.661 53.2953 124.899C53.057 125.137 52.7498 125.325 52.3735 125.463C52.0099 125.601 51.5396 125.67 50.9627 125.67C50.1977 125.67 49.5331 125.507 48.9688 125.181C48.4044 124.843 47.9655 124.36 47.652 123.733C47.3385 123.093 47.1817 122.322 47.1817 121.419C47.1817 120.441 47.3636 119.607 47.7272 118.917C48.1035 118.215 48.6364 117.682 49.3262 117.318C50.0159 116.942 50.8248 116.754 51.7528 116.754C52.4425 116.754 53.0821 116.873 53.6715 117.111C54.2734 117.35 54.7939 117.713 55.2328 118.202C55.6843 118.679 56.0354 119.287 56.2862 120.027C56.537 120.767 56.6624 121.639 56.6624 122.642ZM51.8092 119.03C51.2574 119.03 50.806 119.218 50.4548 119.594C50.1037 119.971 49.9281 120.566 49.9281 121.381C49.9281 122.034 50.0786 122.548 50.3796 122.924C50.6806 123.3 51.1383 123.488 51.7528 123.488C52.1792 123.488 52.5428 123.394 52.8438 123.206C53.1573 123.018 53.4019 122.786 53.5774 122.51C53.753 122.222 53.8408 121.927 53.8408 121.626C53.8408 121.312 53.7969 121.005 53.7091 120.704C53.6213 120.391 53.4897 120.109 53.3141 119.858C53.1511 119.607 52.9441 119.406 52.6933 119.256C52.4425 119.105 52.1478 119.03 51.8092 119.03ZM62.7245 116.735C63.5021 116.735 64.2106 116.854 64.8502 117.093C65.5023 117.331 66.0227 117.688 66.4115 118.165C66.8128 118.641 67.0134 119.243 67.0134 119.971C67.0134 120.51 66.9068 120.986 66.6936 121.4C66.4805 121.802 66.192 122.153 65.8283 122.454C65.4772 122.755 65.0696 123.018 64.6056 123.244C65.0822 123.495 65.5336 123.789 65.96 124.128C66.3989 124.454 66.7501 124.843 67.0134 125.294C67.2893 125.733 67.4273 126.253 67.4273 126.855C67.4273 127.595 67.2266 128.241 66.8253 128.793C66.4366 129.345 65.8848 129.771 65.17 130.072C64.4677 130.373 63.6525 130.524 62.7245 130.524C61.7213 130.524 60.8685 130.379 60.1663 130.091C59.464 129.802 58.9247 129.389 58.5485 128.849C58.1848 128.31 58.003 127.671 58.003 126.931C58.003 126.316 58.1159 125.783 58.3416 125.332C58.5799 124.88 58.8934 124.492 59.2821 124.165C59.6709 123.827 60.1036 123.545 60.5801 123.319C60.1788 123.068 59.8151 122.786 59.4891 122.472C59.163 122.146 58.8997 121.783 58.699 121.381C58.5109 120.968 58.4168 120.491 58.4168 119.952C58.4168 119.237 58.6175 118.641 59.0188 118.165C59.4201 117.688 59.9468 117.331 60.5989 117.093C61.2636 116.854 61.9721 116.735 62.7245 116.735ZM60.6365 126.761C60.6365 127.25 60.8058 127.652 61.1444 127.965C61.4956 128.279 62.0097 128.436 62.6869 128.436C63.1635 128.436 63.5522 128.367 63.8532 128.229C64.1667 128.091 64.3987 127.896 64.5492 127.645C64.7122 127.395 64.7937 127.106 64.7937 126.78C64.7937 126.442 64.6934 126.147 64.4928 125.896C64.2921 125.633 64.0413 125.401 63.7403 125.2C63.4519 124.987 63.1509 124.792 62.8374 124.617L62.5929 124.485C62.2041 124.661 61.8592 124.861 61.5583 125.087C61.2698 125.313 61.0441 125.564 60.8811 125.84C60.718 126.103 60.6365 126.41 60.6365 126.761ZM62.7057 118.804C62.2417 118.804 61.853 118.923 61.5395 119.162C61.2385 119.4 61.088 119.739 61.088 120.178C61.088 120.479 61.1632 120.748 61.3137 120.986C61.4642 121.212 61.6649 121.413 61.9157 121.588C62.1665 121.751 62.4361 121.908 62.7245 122.059C63.013 121.921 63.2763 121.77 63.5146 121.607C63.7654 121.444 63.9661 121.25 64.1166 121.024C64.267 120.786 64.3423 120.504 64.3423 120.178C64.3423 119.739 64.1855 119.4 63.872 119.162C63.571 118.923 63.1823 118.804 62.7057 118.804ZM78.5495 127.551H76.9318V130.335H74.1666V127.551H68.4292V125.576L74.3171 116.904H76.9318V125.351H78.5495V127.551ZM74.1666 123.074C74.1666 122.861 74.1666 122.61 74.1666 122.322C74.1791 122.021 74.1917 121.726 74.2042 121.438C74.2167 121.137 74.2293 120.874 74.2418 120.648C74.2544 120.41 74.2669 120.247 74.2794 120.159H74.2042C74.0913 120.41 73.9722 120.654 73.8468 120.892C73.7214 121.131 73.5709 121.375 73.3953 121.626L70.9311 125.351H74.1666V123.074Z" fill="white"/>
<g filter="url(#filter1_d_372_138)">
<rect x="19.1631" y="77.4155" width="26.1263" height="26.1263" rx="6.27031" fill="#019EFF"/>
</g>
<path d="M28.1328 86.5991H36.2966C36.392 86.5991 36.4873 86.6051 36.5819 86.6172C36.5498 86.3921 36.4725 86.1759 36.3546 85.9815C36.2367 85.7871 36.0806 85.6186 35.8959 85.4862C35.7111 85.3537 35.5014 85.2601 35.2794 85.2108C35.0575 85.1616 34.8279 85.1578 34.6044 85.1998L27.8904 86.346H27.8827C27.4613 86.4266 27.0865 86.6651 26.835 87.0127C27.214 86.7431 27.6677 86.5985 28.1328 86.5991Z" fill="white"/>
<path d="M36.2966 87.2129H28.1328C27.6999 87.2134 27.2849 87.3855 26.9788 87.6916C26.6726 87.9977 26.5005 88.4128 26.5 88.8457V93.744C26.5005 94.1769 26.6726 94.5919 26.9788 94.898C27.2849 95.2041 27.6999 95.3763 28.1328 95.3768H36.2966C36.7295 95.3763 37.1446 95.2041 37.4507 94.898C37.7568 94.5919 37.9289 94.1769 37.9294 93.744V88.8457C37.9289 88.4128 37.7568 87.9977 37.4507 87.6916C37.1446 87.3855 36.7295 87.2134 36.2966 87.2129ZM35.0848 92.1112C34.9234 92.1112 34.7655 92.0633 34.6313 91.9736C34.497 91.8839 34.3924 91.7564 34.3306 91.6072C34.2688 91.4581 34.2526 91.2939 34.2841 91.1356C34.3156 90.9772 34.3934 90.8317 34.5075 90.7176C34.6217 90.6034 34.7672 90.5256 34.9256 90.4941C35.0839 90.4626 35.2481 90.4788 35.3972 90.5406C35.5464 90.6024 35.6739 90.707 35.7636 90.8413C35.8533 90.9755 35.9012 91.1334 35.9012 91.2948C35.9012 91.5113 35.8152 91.719 35.6621 91.8721C35.509 92.0252 35.3013 92.1112 35.0848 92.1112Z" fill="white"/>
<path d="M26.5127 90.5663V88.0278C26.5127 87.475 26.8188 86.5481 27.8814 86.3474C28.7833 86.1782 29.6762 86.1782 29.6762 86.1782C29.6762 86.1782 30.263 86.5864 29.7782 86.5864C29.2935 86.5864 29.3063 87.2115 29.7782 87.2115C30.2502 87.2115 29.7782 87.811 29.7782 87.811L27.8776 89.9668L26.5127 90.5663Z" fill="white"/>
<defs>
<filter id="filter0_d_372_138" x="148.076" y="75.3254" width="37.6218" height="37.622" filterUnits="userSpaceOnUse" color-interpolation-filters="sRGB">
<feFlood flood-opacity="0" result="BackgroundImageFix"/>
<feColorMatrix in="SourceAlpha" type="matrix" values="0 0 0 0 0 0 0 0 0 0 0 0 0 0 0 0 0 0 127 0" result="hardAlpha"/>
<feOffset dy="3.65768"/>
<feGaussianBlur stdDeviation="2.87389"/>
<feColorMatrix type="matrix" values="0 0 0 0 0 0 0 0 0 0 0 0 0 0 0 0 0 0 0.02 0"/>
<feBlend mode="normal" in2="BackgroundImageFix" result="effect1_dropShadow_372_138"/>
<feBlend mode="normal" in="SourceGraphic" in2="effect1_dropShadow_372_138" result="shape"/>
</filter>
<filter id="filter1_d_372_138" x="13.4153" y="75.3254" width="37.6218" height="37.622" filterUnits="userSpaceOnUse" color-interpolation-filters="sRGB">
<feFlood flood-opacity="0" result="BackgroundImageFix"/>
<feColorMatrix in="SourceAlpha" type="matrix" values="0 0 0 0 0 0 0 0 0 0 0 0 0 0 0 0 0 0 127 0" result="hardAlpha"/>
<feOffset dy="3.65768"/>
<feGaussianBlur stdDeviation="2.87389"/>
<feColorMatrix type="matrix" values="0 0 0 0 0 0 0 0 0 0 0 0 0 0 0 0 0 0 0.02 0"/>
<feBlend mode="normal" in2="BackgroundImageFix" result="effect1_dropShadow_372_138"/>
<feBlend mode="normal" in="SourceGraphic" in2="effect1_dropShadow_372_138" result="shape"/>
</filter>
</defs>
</svg>
