<svg width="46" height="37" viewBox="0 0 46 37" fill="none" xmlns="http://www.w3.org/2000/svg">
<g clip-path="url(#clip0_456_128)">
<path fill-rule="evenodd" clip-rule="evenodd" d="M6.15517 1.44838C6.37546 1.08076 6.68726 0.776502 7.06016 0.565278C7.43306 0.354053 7.85434 0.243074 8.28291 0.243164H37.7116C38.1402 0.243074 38.5614 0.354053 38.9343 0.565278C39.3073 0.776502 39.6191 1.08076 39.8393 1.44838L45.429 10.7653C45.5417 10.9535 45.6026 11.1682 45.6052 11.3876C45.6079 11.6069 45.5523 11.8231 45.4441 12.0139C45.336 12.2048 45.1791 12.3636 44.9895 12.474C44.8 12.5844 44.5845 12.6426 44.3651 12.6425H41.6001V33.7215C41.6001 34.3792 41.3388 35.01 40.8737 35.475C40.4086 35.9401 39.7779 36.2014 39.1202 36.2014H21.761C21.1033 36.2014 20.4726 35.9401 20.0075 35.475C19.5424 35.01 19.2812 34.3792 19.2812 33.7215V20.5781C19.2812 20.4466 19.2289 20.3204 19.1359 20.2274C19.0429 20.1344 18.9167 20.0822 18.7852 20.0822H11.0976C10.966 20.0822 10.8399 20.1344 10.7469 20.2274C10.6538 20.3204 10.6016 20.4466 10.6016 20.5781V33.7215C10.6016 34.3792 10.3403 35.01 9.87525 35.475C9.41019 35.9401 8.77942 36.2014 8.12172 36.2014H6.88178C6.22407 36.2014 5.59331 35.9401 5.12824 35.475C4.66317 35.01 4.4019 34.3792 4.4019 33.7215V12.6425H1.6294C1.4098 12.643 1.19402 12.5852 1.00411 12.4749C0.814199 12.3647 0.656975 12.206 0.548515 12.015C0.440055 11.8241 0.384249 11.6078 0.386803 11.3882C0.389357 11.1686 0.450179 10.9536 0.563052 10.7653L6.15517 1.44838ZM24.2409 20.4938C24.2409 19.9235 24.7046 19.4622 25.275 19.4622H35.6062C36.1766 19.4622 36.6403 19.9259 36.6403 20.4963V27.7276C36.6403 28.298 36.179 28.7617 35.6062 28.7617H25.275C25.1392 28.7617 25.0047 28.735 24.8793 28.683C24.7538 28.631 24.6398 28.5549 24.5438 28.4588C24.4478 28.3628 24.3716 28.2488 24.3196 28.1234C24.2677 27.9979 24.2409 27.8634 24.2409 27.7276V20.4938Z" fill="#444444"/>
</g>
<defs>
<clipPath id="clip0_456_128">
<rect width="46" height="37" fill="white"/>
</clipPath>
</defs>
</svg>
