<svg width="18" height="18" viewBox="0 0 18 18" fill="none" xmlns="http://www.w3.org/2000/svg">
<path fill-rule="evenodd" clip-rule="evenodd" d="M17.651 4.84115C17.651 2.37914 15.6557 0.383789 13.1937 0.383789H5.44174C2.97972 0.383789 0.984375 2.37914 0.984375 4.84115V12.5931C0.984375 15.0551 2.97972 17.0505 5.44174 17.0505H13.1937C15.6557 17.0505 17.651 15.0551 17.651 12.5931V4.84115ZM9.3177 4.64736C7.0712 4.64736 5.24794 6.47061 5.24794 8.7171C5.24794 10.9636 7.0712 12.7869 9.3177 12.7869C11.5642 12.7869 13.3875 10.9636 13.3875 8.7171C13.3875 6.47061 11.5642 4.64736 9.3177 4.64736ZM9.3177 5.81015C10.9224 5.81015 12.2247 7.11247 12.2247 8.7171C12.2247 10.3218 10.9224 11.6241 9.3177 11.6241C7.71306 11.6241 6.41072 10.3218 6.41072 8.7171C6.41072 7.11247 7.71306 5.81015 9.3177 5.81015ZM13.7751 3.29077C14.31 3.29077 14.7441 3.72487 14.7441 4.25976C14.7441 4.79464 14.31 5.22875 13.7751 5.22875C13.2402 5.22875 12.8061 4.79464 12.8061 4.25976C12.8061 3.72487 13.2402 3.29077 13.7751 3.29077Z" fill="#444444"/>
</svg>
