<svg width="36" height="26" viewBox="0 0 36 26" fill="none" xmlns="http://www.w3.org/2000/svg">
<g clip-path="url(#clip0_456_130)">
<path d="M0.226074 25.1466V10.7733C0.226074 7.66994 1.06997 5.24716 2.75774 3.50493C4.44552 1.76271 6.89552 0.891602 10.1077 0.891602H13.8644V6.5266H10.761C9.34552 6.5266 8.25663 6.90771 7.49441 7.66993C6.73219 8.43216 6.35108 9.52105 6.35108 10.9366V14.1216H11.3327V25.1466H0.226074ZM22.1127 25.1466V10.7733C22.1127 7.66994 22.9566 5.24716 24.6444 3.50493C26.3321 1.76271 28.7821 0.891602 31.9944 0.891602H35.751V6.5266H32.6477C31.2321 6.5266 30.1433 6.90771 29.381 7.66993C28.6188 8.43216 28.2377 9.52105 28.2377 10.9366V14.1216H33.2194V25.1466H22.1127Z" fill="#444444"/>
</g>
<defs>
<clipPath id="clip0_456_130">
<rect width="36" height="26" fill="white"/>
</clipPath>
</defs>
</svg>
