<svg width="37" height="43" viewBox="0 0 37 43" fill="none" xmlns="http://www.w3.org/2000/svg">
<g clip-path="url(#clip0_456_124)">
<path d="M29.9999 12.7227C29.9999 13.2467 29.9666 13.7627 29.8999 14.2707C32.5211 15.7429 34.4942 18.1455 35.4288 21.0029C36.3634 23.8604 36.1914 26.9645 34.9467 29.7012C33.7021 32.4378 31.4756 34.6076 28.7077 35.7812C25.9398 36.9548 22.8323 37.0467 19.9999 36.0387V42.7227H15.9999V35.5227C13.6943 36.7005 11.0471 37.0274 8.52427 36.4457C6.00141 35.864 3.76458 34.4111 2.20744 32.3426C0.650313 30.2742 -0.127317 27.7228 0.0114185 25.1375C0.150153 22.5521 1.19636 20.0986 2.96591 18.2087C3.74746 20.3483 4.97686 22.2964 6.57191 23.9227L9.42791 21.1227C7.23002 18.8791 5.9993 15.8634 5.99991 12.7227C5.99991 9.54006 7.26419 6.48781 9.51463 4.23737C11.7651 1.98694 14.8173 0.722656 17.9999 0.722656C21.1825 0.722656 24.2348 1.98694 26.4852 4.23737C28.7356 6.48781 29.9999 9.54006 29.9999 12.7227Z" fill="#444444"/>
</g>
<defs>
<clipPath id="clip0_456_124">
<rect width="37" height="43" fill="white"/>
</clipPath>
</defs>
</svg>
