<svg width="40" height="41" viewBox="0 0 40 41" fill="none" xmlns="http://www.w3.org/2000/svg">
<g clip-path="url(#clip0_456_132)">
<path d="M36 12.7227H4V8.72266H36V12.7227ZM32 0.722656H8V4.72266H32V0.722656ZM40 20.7227V36.7227C40 37.7835 39.5786 38.8009 38.8284 39.5511C38.0783 40.3012 37.0609 40.7227 36 40.7227H4C2.94011 40.7195 1.92453 40.2971 1.17507 39.5476C0.425609 38.7981 0.00316545 37.7825 0 36.7227V20.7227C0.00316545 19.6628 0.425609 18.6472 1.17507 17.8977C1.92453 17.1483 2.94011 16.7258 4 16.7227H36C37.0599 16.7258 38.0755 17.1483 38.8249 17.8977C39.5744 18.6472 39.9968 19.6628 40 20.7227ZM23.854 30.8067L28.5 26.8347L22.382 26.3227L20 20.7227L17.618 26.3227L11.5 26.8347L16.146 30.8067L14.746 36.7227L20 33.5787L25.254 36.7227L23.854 30.8067Z" fill="#444444"/>
</g>
<defs>
<clipPath id="clip0_456_132">
<rect width="40" height="41" fill="white"/>
</clipPath>
</defs>
</svg>
