<svg width="15" height="13" viewBox="0 0 15 13" fill="none" xmlns="http://www.w3.org/2000/svg">
<path d="M14.5426 3.49163C14.5426 3.35438 14.3514 2.25634 13.9053 1.77595C13.3318 1.08967 12.6946 1.02104 12.3759 1.02104H12.3122C10.3367 0.883789 7.4053 0.883789 7.3416 0.883789C7.3416 0.883789 4.34652 0.883789 2.37103 1.02104H2.3073C1.98867 1.02104 1.35142 1.08967 0.777894 1.77595C0.331814 2.32497 0.140634 3.423 0.140634 3.56026C0.140634 3.62889 0.0131836 4.86418 0.0131836 6.1681V7.3348C0.0131836 8.6387 0.140634 9.874 0.140634 9.9426C0.140634 10.0799 0.331814 11.1779 0.777894 11.6583C1.28769 12.2759 1.92495 12.3446 2.3073 12.4132C2.37103 12.4132 2.43475 12.4132 2.49848 12.4132C3.64554 12.5505 7.1504 12.5505 7.2779 12.5505C7.2779 12.5505 10.273 12.5505 12.2485 12.4132H12.3122C12.6308 12.3446 13.2681 12.2759 13.8416 11.6583C14.2877 11.1093 14.4789 10.0112 14.4789 9.874C14.4789 9.8054 14.6063 8.5701 14.6063 7.2661V6.0995C14.67 4.86418 14.5426 3.56026 14.5426 3.49163ZM9.8269 6.8544L6.00338 9.0505C5.93965 9.0505 5.93965 9.1191 5.87593 9.1191C5.8122 9.1191 5.74848 9.1191 5.74848 9.0505C5.68475 8.9818 5.62103 8.9132 5.62103 8.7759V4.31516C5.62103 4.17791 5.68475 4.10928 5.74848 4.04065C5.8122 3.97202 5.93965 3.97202 6.06711 4.04065L9.8906 6.2367C10.0181 6.3054 10.0818 6.374 10.0818 6.5112C10.0818 6.6485 9.9544 6.7857 9.8269 6.8544Z" fill="#444444"/>
</svg>
